<svg width="40" height="40" viewBox="0 0 40 40" fill="none" xmlns="http://www.w3.org/2000/svg">
<circle cx="20" cy="20" r="19.5" fill="white" stroke="#FF0000"/>
<mask id="path-2-inside-1_2_257" fill="white">
<path d="M17.9339 28.8C17.7498 28.8004 17.6004 28.6371 17.6 28.4354C17.5999 28.3382 17.6351 28.2449 17.6979 28.1762L24.7952 20.4002L17.6979 12.6242C17.5676 12.4814 17.5676 12.2499 17.6979 12.1071C17.8283 11.9643 18.0396 11.9643 18.1699 12.1071L25.5024 20.1417C25.6325 20.2843 25.6325 20.5155 25.5024 20.6581L18.1699 28.6926C18.1074 28.7613 18.0225 28.8 17.9339 28.8Z"/>
</mask>
<path d="M17.9339 28.8C17.7498 28.8004 17.6004 28.6371 17.6 28.4354C17.5999 28.3382 17.6351 28.2449 17.6979 28.1762L24.7952 20.4002L17.6979 12.6242C17.5676 12.4814 17.5676 12.2499 17.6979 12.1071C17.8283 11.9643 18.0396 11.9643 18.1699 12.1071L25.5024 20.1417C25.6325 20.2843 25.6325 20.5155 25.5024 20.6581L18.1699 28.6926C18.1074 28.7613 18.0225 28.8 17.9339 28.8Z" fill="url(#paint0_linear_2_257)"/>
<path d="M17.9339 28.8V27.8L17.9319 27.8L17.9339 28.8ZM17.6 28.4354L16.6 28.437L16.6 28.4371L17.6 28.4354ZM17.6979 28.1762L18.4357 28.8512L18.4365 28.8503L17.6979 28.1762ZM24.7952 20.4002L25.5338 21.0743L26.1491 20.4002L25.5338 19.7261L24.7952 20.4002ZM17.6979 12.6242L16.9593 13.2983L16.9593 13.2984L17.6979 12.6242ZM18.1699 12.1071L17.4312 12.7812L17.4312 12.7812L18.1699 12.1071ZM25.5024 20.1417L26.2411 19.4677L26.2411 19.4676L25.5024 20.1417ZM25.5024 20.6581L26.2411 21.3322L26.2412 21.332L25.5024 20.6581ZM18.1699 28.6926L17.4312 28.0185L17.4302 28.0196L18.1699 28.6926ZM17.9319 27.8C18.3845 27.7991 18.5996 28.1713 18.6 28.4337L16.6 28.4371C16.6011 29.103 17.1151 29.8017 17.936 29.8L17.9319 27.8ZM18.6 28.4338C18.6002 28.5747 18.55 28.7263 18.4357 28.8512L16.9601 27.5012C16.7202 27.7635 16.5995 28.1017 16.6 28.437L18.6 28.4338ZM18.4365 28.8503L25.5338 21.0743L24.0565 19.7261L16.9593 27.5021L18.4365 28.8503ZM25.5338 19.7261L18.4365 11.9501L16.9593 13.2984L24.0565 21.0743L25.5338 19.7261ZM18.4366 11.9501C18.5541 12.0789 18.6002 12.2323 18.6002 12.3657C18.6002 12.4991 18.5541 12.6524 18.4366 12.7812L16.9593 11.433C16.4805 11.9577 16.4805 12.7737 16.9593 13.2983L18.4366 11.9501ZM18.4366 12.7812C18.1703 13.0729 17.6975 13.0729 17.4312 12.7812L18.9085 11.433C18.3816 10.8557 17.4862 10.8557 16.9593 11.433L18.4366 12.7812ZM17.4312 12.7812L24.7638 20.8158L26.2411 19.4676L18.9085 11.433L17.4312 12.7812ZM24.7637 20.8157C24.6461 20.6868 24.6 20.5333 24.6 20.3999C24.6 20.2664 24.6461 20.113 24.7636 19.9842L26.2412 21.332C26.7196 20.8076 26.7197 19.9921 26.2411 19.4677L24.7637 20.8157ZM24.7638 19.984L17.4312 28.0185L18.9085 29.3667L26.2411 21.3322L24.7638 19.984ZM17.4302 28.0196C17.5465 27.8919 17.7253 27.8 17.9339 27.8V29.8C18.3196 29.8 18.6682 29.6308 18.9095 29.3656L17.4302 28.0196Z" fill="#FF0000" mask="url(#path-2-inside-1_2_257)"/>
<defs>
<linearGradient id="paint0_linear_2_257" x1="17.6" y1="19" x2="25.6" y2="18.9982" gradientUnits="userSpaceOnUse">
<stop stop-color="#F23801"/>
<stop offset="0.942708" stop-color="#F45223"/>
</linearGradient>
</defs>
</svg>
