<svg width="18" height="27" viewBox="0 0 18 27" fill="none" xmlns="http://www.w3.org/2000/svg">
<path d="M15.6111 0.651855H2.38889C1.88792 0.651855 1.40748 0.844229 1.05324 1.18666C0.699008 1.52908 0.5 1.99352 0.5 2.47778V24.3889C0.5 24.8732 0.699008 25.3376 1.05324 25.68C1.40748 26.0224 1.88792 26.2148 2.38889 26.2148H15.6111C16.1121 26.2148 16.5925 26.0224 16.9468 25.68C17.301 25.3376 17.5 24.8732 17.5 24.3889V2.47778C17.5 1.99352 17.301 1.52908 16.9468 1.18666C16.5925 0.844229 16.1121 0.651855 15.6111 0.651855ZM9.94444 24.3889H8.05556V22.563H9.94444V24.3889ZM2.38889 20.737V2.47778H15.6111V20.737H2.38889Z" fill="#333333"/>
</svg>
