<svg width="72" height="72" viewBox="0 0 72 72" fill="none" xmlns="http://www.w3.org/2000/svg">
<circle cx="36.0002" cy="36.0002" r="36.0002" fill="white"/>
<g clip-path="url(#clip0_2_203)">
<path d="M47.4817 31.3947L46.1844 32.692C48.5195 35.0272 48.5195 38.6596 46.1844 41.1245L47.4817 42.4218C50.7249 39.438 50.7249 34.5082 47.4817 31.3947ZM44.7573 34.1191L43.46 35.4164C44.1087 36.3245 44.1087 37.492 43.46 38.4002L44.7573 39.6975C46.3141 38.1407 46.3141 35.8055 44.7573 34.1191ZM39.5681 22.7028H26.595C25.168 22.7028 24.0004 23.8703 24.0004 25.2974V48.6489C24.0004 50.0759 25.168 51.2435 26.595 51.2435H39.5681C40.9951 51.2435 42.1627 50.0759 42.1627 48.6489V25.2974C42.1627 23.8703 40.9951 22.7028 39.5681 22.7028ZM39.5681 47.3516H26.595V26.5947H39.5681V47.3516Z" fill="#FF4A19"/>
</g>
<defs>
<clipPath id="clip0_2_203">
<rect width="31.1353" height="31.1353" fill="white" transform="translate(21.4056 21.4056)"/>
</clipPath>
</defs>
</svg>
