<svg width="573" height="402" viewBox="0 0 573 402" fill="none" xmlns="http://www.w3.org/2000/svg">
<g clip-path="url(#clip0_22_44)">
<path d="M248.241 380.012C248.241 392.074 210.528 401.851 164.007 401.851C117.486 401.851 79.7734 392.074 79.7734 380.012C79.7734 367.95 117.486 358.173 164.007 358.173C210.528 358.173 248.241 367.95 248.241 380.012" fill="white"/>
<path d="M248.241 380.012C248.241 392.074 210.528 401.851 164.007 401.851C117.486 401.851 79.7734 392.074 79.7734 380.012C79.7734 367.95 117.486 358.173 164.007 358.173C210.528 358.173 248.241 367.95 248.241 380.012V380.012Z" stroke="#1B1918" stroke-width="1.27899" stroke-miterlimit="10" stroke-linecap="round" stroke-linejoin="round"/>
<path d="M66.7651 346.335C200.875 346.335 334.986 346.335 469.094 346.335C469.785 345.34 477.041 334.494 472.517 322.637C468.51 312.133 456.964 305.324 444.385 306.672C447.715 284.126 442.418 261.568 428.039 251.551C406.794 236.751 362.844 247.32 339.463 289.565C341.744 261.815 323.496 240.147 299.547 229.503C267.487 218.098 250.428 243.266 242.904 250.03C233.603 239.799 218.797 227.011 197.665 219.999C173.274 211.906 130.123 208.079 113.651 232.164C107.805 240.712 106.816 250.587 107.188 258.394C84.0695 250.936 59.021 261.243 48.2642 281.963C36.7423 304.157 44.5485 332.65 66.7651 346.335Z" fill="white"/>
<path d="M305.503 249.017H278.132V191.995H305.503V249.017Z" fill="white"/>
<path d="M305.503 249.017H278.132V191.995H305.503V249.017Z" stroke="#1B1918" stroke-width="1.27899" stroke-miterlimit="10" stroke-linecap="round" stroke-linejoin="round"/>
<path d="M309.151 243.441H274.482L174.391 288.805H204.341L291.817 259.154L379.292 288.805H409.243L309.151 243.441Z" fill="#1D1316"/>
<path d="M309.151 243.441H274.482L174.391 288.805H204.341L291.817 259.154L379.292 288.805H409.243L309.151 243.441Z" stroke="#1B1918" stroke-width="0.639492" stroke-miterlimit="10" stroke-linecap="round" stroke-linejoin="round"/>
<path d="M440.077 288.805H116.186V340.416H440.077V288.805" fill="white"/>
<path d="M440.077 288.805H116.186V340.416H440.077V288.805Z" stroke="#1B1918" stroke-width="1.27899" stroke-miterlimit="10" stroke-linecap="round" stroke-linejoin="round"/>
<path d="M375.793 295.06V334.656" stroke="#1B1918" stroke-width="1.27899" stroke-miterlimit="10" stroke-linecap="round" stroke-linejoin="round"/>
<path d="M116.186 340.416V346.335H440.077V340.416H116.186Z" fill="#1D1316"/>
<path d="M116.186 340.416V346.335H440.077V340.416H116.186Z" stroke="#1B1918" stroke-width="0.639492" stroke-miterlimit="10" stroke-linecap="round" stroke-linejoin="round"/>
<path d="M221.362 295.06V334.656" stroke="#1B1918" stroke-width="1.27899" stroke-miterlimit="10" stroke-linecap="round" stroke-linejoin="round"/>
<path d="M166.646 295.06V334.656" stroke="#1B1918" stroke-width="1.27899" stroke-miterlimit="10" stroke-linecap="round" stroke-linejoin="round"/>
<path d="M48.2764 346.335H489.258" stroke="#1B1918" stroke-width="1.91848" stroke-miterlimit="10" stroke-linecap="round" stroke-linejoin="round"/>
<path d="M435.24 194.276H144.848C138.116 194.276 132.659 188.819 132.659 182.087V12.3386C132.659 5.60512 138.116 0.149298 144.848 0.149298H435.24C441.97 0.149298 447.426 5.60512 447.426 12.3386V182.087C447.426 188.819 441.97 194.276 435.24 194.276" fill="white"/>
<path d="M435.24 194.276H144.848C138.116 194.276 132.659 188.819 132.659 182.087V12.3386C132.659 5.60512 138.116 0.149298 144.848 0.149298H435.24C441.97 0.149298 447.426 5.60512 447.426 12.3386V182.087C447.426 188.819 441.97 194.276 435.24 194.276V194.276Z" stroke="#1B1918" stroke-width="1.27899" stroke-miterlimit="10" stroke-linecap="round" stroke-linejoin="round"/>
<path d="M438.811 22.2151V172.209C438.811 179.909 432.568 186.148 424.871 186.148H373.93V8.27864H424.871C432.568 8.27864 438.811 14.5179 438.811 22.2151Z" fill="white"/>
<path d="M438.811 22.2151V172.209C438.811 179.909 432.568 186.148 424.871 186.148H373.93V8.27864H424.871C432.568 8.27864 438.811 14.5179 438.811 22.2151Z" stroke="#1B1918" stroke-width="1.27899" stroke-miterlimit="10" stroke-linecap="round" stroke-linejoin="round"/>
<path d="M373.931 44.5451V126.359H141.277V44.5451H373.931Z" fill="white"/>
<path d="M373.931 44.5451V126.359H141.277V44.5451H373.931Z" stroke="#1B1918" stroke-width="1.27899" stroke-miterlimit="10" stroke-linecap="round" stroke-linejoin="round"/>
<path d="M366.431 120.29H149.008V49.7367H366.431V120.29Z" stroke="#1B1918" stroke-width="1.27899" stroke-miterlimit="10" stroke-linecap="round" stroke-linejoin="round" stroke-dasharray="7.67 7.67"/>
<path d="M373.931 8.27854V44.545H141.277V22.215C141.277 14.5178 147.516 8.27854 155.214 8.27854H373.931" fill="white"/>
<path d="M373.931 8.27854V44.545H141.277V22.215C141.277 14.5178 147.516 8.27854 155.214 8.27854H373.931Z" stroke="#1B1918" stroke-width="1.27899" stroke-miterlimit="10" stroke-linecap="round" stroke-linejoin="round"/>
<path d="M373.931 126.359V186.148H155.214C147.516 186.148 141.277 179.909 141.277 172.209V126.359H373.931Z" fill="white"/>
<path d="M373.931 126.359V186.148H155.214C147.516 186.148 141.277 179.909 141.277 172.209V126.359H373.931Z" stroke="#1B1918" stroke-width="1.27899" stroke-miterlimit="10" stroke-linecap="round" stroke-linejoin="round"/>
<path d="M419.043 71.1092C419.043 64.671 413.823 59.4514 407.385 59.4514C400.946 59.4514 395.727 64.671 395.727 71.1092C395.727 77.5474 400.946 82.767 407.385 82.767C413.823 82.767 419.043 77.5474 419.043 71.1092Z" fill="white"/>
<path d="M419.043 71.1092C419.043 64.671 413.823 59.4514 407.385 59.4514C400.946 59.4514 395.727 64.671 395.727 71.1092C395.727 77.5474 400.946 82.767 407.385 82.767C413.823 82.767 419.043 77.5474 419.043 71.1092Z" stroke="#1B1918" stroke-width="1.27899" stroke-miterlimit="10" stroke-linecap="round" stroke-linejoin="round"/>
<path d="M338.181 89.2083C338.181 82.7701 332.962 77.5506 326.523 77.5506C320.085 77.5506 314.865 82.7701 314.865 89.2083C314.865 95.6459 320.085 100.865 326.523 100.865C332.962 100.865 338.181 95.6459 338.181 89.2083Z" fill="white"/>
<path d="M338.181 89.2083C338.181 82.7701 332.962 77.5506 326.523 77.5506C320.085 77.5506 314.865 82.7701 314.865 89.2083C314.865 95.6459 320.085 100.865 326.523 100.865C332.962 100.865 338.181 95.6459 338.181 89.2083Z" stroke="#1B1918" stroke-width="1.27899" stroke-miterlimit="10" stroke-linecap="round" stroke-linejoin="round"/>
<path d="M293.15 27.2574C293.15 20.8192 287.931 15.5996 281.492 15.5996C275.053 15.5996 269.834 20.8192 269.834 27.2574C269.834 33.6956 275.053 38.9152 281.492 38.9152C287.931 38.9152 293.15 33.6956 293.15 27.2574Z" fill="white"/>
<path d="M293.15 27.2574C293.15 20.8192 287.931 15.5996 281.492 15.5996C275.053 15.5996 269.834 20.8192 269.834 27.2574C269.834 33.6956 275.053 38.9152 281.492 38.9152C287.931 38.9152 293.15 33.6956 293.15 27.2574Z" stroke="#1B1918" stroke-width="1.27899" stroke-miterlimit="10" stroke-linecap="round" stroke-linejoin="round"/>
<path d="M325.031 157.885C325.031 151.446 319.812 146.227 313.373 146.227C306.934 146.227 301.715 151.446 301.715 157.885C301.715 164.323 306.934 169.542 313.373 169.542C319.812 169.542 325.031 164.323 325.031 157.885" fill="white"/>
<path d="M325.031 157.885C325.031 151.446 319.812 146.227 313.373 146.227C306.934 146.227 301.715 151.446 301.715 157.885C301.715 164.323 306.934 169.542 313.373 169.542C319.812 169.542 325.031 164.323 325.031 157.885V157.885Z" stroke="#1B1918" stroke-width="1.27899" stroke-miterlimit="10" stroke-linecap="round" stroke-linejoin="round"/>
<path d="M278.902 31.3827V30.7112L279.763 29.875C281.835 27.9009 282.772 26.8533 282.784 25.6284C282.784 24.8046 282.385 24.043 281.174 24.043C280.438 24.043 279.826 24.4191 279.451 24.73L279.102 23.9559C279.664 23.4834 280.463 23.1321 281.398 23.1321C283.146 23.1321 283.882 24.3321 283.882 25.4917C283.882 26.9901 282.797 28.1994 281.087 29.8501L280.438 30.447V30.4719H284.082V31.3827H278.902Z" fill="#100F0D"/>
<path d="M324.289 92.0034C324.6 92.2033 325.324 92.5154 326.086 92.5154C327.497 92.5154 327.932 91.6166 327.92 90.943C327.907 89.8052 326.884 89.3202 325.824 89.3202H325.212V88.4964H325.824C326.623 88.4964 327.634 88.083 327.634 87.1224C327.634 86.4726 327.223 85.9006 326.21 85.9006C325.563 85.9006 324.938 86.1866 324.587 86.4353L324.301 85.6364C324.727 85.3255 325.548 85.0146 326.424 85.0146C328.019 85.0146 328.744 85.9628 328.744 86.9483C328.744 87.7845 328.246 88.4964 327.248 88.857V88.8819C328.246 89.084 329.057 89.8301 329.057 90.9679C329.057 92.2658 328.047 93.4014 326.098 93.4014C325.187 93.4014 324.388 93.1144 323.99 92.8524L324.289 92.0034Z" fill="#100F0D"/>
<path d="M407.676 68.0751H407.651L406.243 68.8368L406.028 68.0005L407.8 67.0523H408.739V75.1661H407.676V68.0751" fill="#100F0D"/>
<path d="M314.172 158.871V156.162C314.172 155.738 314.185 155.313 314.21 154.889H314.172C313.924 155.363 313.722 155.713 313.498 156.087L311.514 158.846V158.871H314.172ZM314.172 161.941V159.732H310.402V159.008L314.023 153.828H315.208V158.871H316.342V159.732H315.208V161.941H314.172Z" fill="#100F0D"/>
<path d="M366.431 179.105H149.008V133.875H366.431V179.105Z" stroke="#1B1918" stroke-width="1.27899" stroke-miterlimit="10" stroke-linecap="round" stroke-linejoin="round" stroke-dasharray="7.67 7.67"/>
<path d="M215.631 85.1824C215.631 85.1824 213.153 84.169 217.574 81.9742C221.994 79.7794 226.951 87.2124 226.782 89.83C226.613 92.4485 219.094 96.8414 219.094 96.8414L215.631 85.1824Z" fill="#73CFF5"/>
<path d="M215.631 85.1824C215.631 85.1824 213.153 84.169 217.574 81.9742C221.994 79.7794 226.951 87.2124 226.782 89.83C226.613 92.4485 219.094 96.8414 219.094 96.8414L215.631 85.1824Z" stroke="#1B1918" stroke-width="1.27899" stroke-miterlimit="10" stroke-linecap="round" stroke-linejoin="round"/>
<path d="M229.219 70.3475C229.219 70.3475 225.079 66.7165 222.714 72.3775C220.349 78.0354 217.117 85.1109 217.117 85.1109C217.117 85.1109 220.79 90.8807 223.155 90.374C234.224 85.4529 229.219 70.3475 229.219 70.3475" fill="white"/>
<path d="M229.219 70.3475C229.219 70.3475 225.079 66.7165 222.714 72.3775C220.349 78.0354 217.117 85.1109 217.117 85.1109C217.117 85.1109 220.79 90.8807 223.155 90.374C234.224 85.4529 229.219 70.3475 229.219 70.3475V70.3475Z" stroke="#1B1918" stroke-width="1.27899" stroke-miterlimit="10" stroke-linecap="round" stroke-linejoin="round"/>
<path d="M230.494 47.9616L289.451 53.0319L281.848 96.7902L224.909 88.512L230.494 47.9616" fill="white"/>
<path d="M230.494 47.9616L289.451 53.0319L281.848 96.7902L224.909 88.512L230.494 47.9616Z" stroke="#1B1918" stroke-width="1.27899" stroke-miterlimit="10" stroke-linecap="round" stroke-linejoin="round"/>
<path d="M259.859 70.0522L274.963 61.6897L276.146 63.3374L259.462 72.3341C259.462 72.3341 258.948 71.2771 259.859 70.0522Z" fill="white"/>
<path d="M259.859 70.0522L274.963 61.6897L276.146 63.3374L259.462 72.3341C259.462 72.3341 258.948 71.2771 259.859 70.0522Z" stroke="#1B1918" stroke-width="1.27899" stroke-miterlimit="10" stroke-linecap="round" stroke-linejoin="round"/>
<path d="M176.377 79.2199C176.377 79.2199 137.601 116.98 146.345 135.48C151.92 145.998 168.774 134.847 168.774 134.847L176.377 79.2199Z" fill="#73CFF5"/>
<path d="M176.377 79.2199C176.377 79.2199 137.601 116.98 146.345 135.48C151.92 145.998 168.774 134.847 168.774 134.847L176.377 79.2199Z" fill="#FF0000" stroke="#1B1918" stroke-width="1.27899" stroke-miterlimit="10" stroke-linecap="round" stroke-linejoin="round"/>
<path d="M192.336 366.305L192.893 363.567C192.893 363.567 178.954 361.832 177.18 362.699C177.18 362.699 176.471 364.17 175.611 366.355C180.683 368.065 186.843 367.499 192.336 366.305Z" fill="#1D1316"/>
<path d="M192.336 366.305L192.893 363.567C192.893 363.567 178.954 361.832 177.18 362.699C177.18 362.699 176.471 364.17 175.611 366.355C180.683 368.065 186.843 367.499 192.336 366.305Z" stroke="#1B1918" stroke-width="0.639492" stroke-miterlimit="10" stroke-linecap="round" stroke-linejoin="round"/>
<path d="M203.874 369.144C198.721 368.721 191.878 368.55 191.878 368.55L192.335 366.305C186.842 367.499 180.682 368.065 175.611 366.355C173.371 372.047 170.103 382.586 175.658 384.6C183.346 387.389 202.776 381.476 209.028 377C211.055 375.057 209.028 369.563 203.874 369.144" fill="white"/>
<path d="M203.874 369.144C198.721 368.721 191.878 368.55 191.878 368.55L192.335 366.305C186.842 367.499 180.682 368.065 175.611 366.355C173.371 372.047 170.103 382.586 175.658 384.6C183.346 387.389 202.776 381.476 209.028 377C211.055 375.057 209.028 369.563 203.874 369.144V369.144Z" stroke="#1B1918" stroke-width="1.27899" stroke-miterlimit="10" stroke-linecap="round" stroke-linejoin="round"/>
<path d="M130.341 363.952L131.288 359.693C131.288 359.693 119.691 355.627 117.735 355.901C117.735 355.901 115.859 358.055 113.882 361.005C118.599 364.76 124.55 365.118 130.341 363.952Z" fill="#1D1316"/>
<path d="M130.341 363.952L131.288 359.693C131.288 359.693 119.691 355.627 117.735 355.901C117.735 355.901 115.859 358.055 113.882 361.005C118.599 364.76 124.55 365.118 130.341 363.952Z" stroke="#1B1918" stroke-width="0.639492" stroke-miterlimit="10" stroke-linecap="round" stroke-linejoin="round"/>
<path d="M141.089 370.347C136.324 368.339 129.876 366.044 129.876 366.044L130.341 363.952C124.55 365.118 118.599 364.76 113.882 361.005C110.645 365.836 107.135 372.8 111.13 375.933C117.565 380.979 136.199 381.722 143.535 379.418C146.067 378.206 145.853 372.355 141.089 370.347Z" fill="white"/>
<path d="M141.089 370.347C136.324 368.339 129.876 366.044 129.876 366.044L130.341 363.952C124.55 365.118 118.599 364.76 113.882 361.005C110.645 365.836 107.135 372.8 111.13 375.933C117.565 380.979 136.199 381.722 143.535 379.418C146.067 378.206 145.853 372.355 141.089 370.347Z" stroke="#1B1918" stroke-width="1.27899" stroke-miterlimit="10" stroke-linecap="round" stroke-linejoin="round"/>
<path d="M226.43 167.159C226.43 167.159 173.208 162.851 163.704 169.82C154.201 176.789 137.981 213.79 146.851 266.504C129.364 296.155 115.425 357.486 115.425 357.486C115.425 357.486 126.66 363.989 131.391 362.469C138.234 352.332 170.421 296.915 184.106 238.88C195.257 202.893 202.607 186.42 202.607 186.42" fill="white"/>
<path d="M226.43 167.159C226.43 167.159 173.208 162.851 163.704 169.82C154.201 176.789 137.981 213.79 146.851 266.504C129.364 296.155 115.425 357.486 115.425 357.486C115.425 357.486 126.66 363.989 131.391 362.469C138.234 352.332 170.421 296.915 184.106 238.88C195.257 202.893 202.607 186.42 202.607 186.42" stroke="#1B1918" stroke-width="1.27899" stroke-miterlimit="10" stroke-linecap="round" stroke-linejoin="round"/>
<path d="M194.37 163.231C194.877 163.231 232.786 166.384 233.663 168.355C234.54 170.327 235.554 223.421 228.711 256.62C221.868 289.819 196.186 365.258 196.186 365.258C196.186 365.258 177.094 367.453 174.391 363.567C175.066 352.584 187.739 281.625 194.159 271.15C191.962 259.83 177.003 224.912 183.85 199.575" fill="white"/>
<path d="M194.37 163.231C194.877 163.231 232.786 166.384 233.663 168.355C234.54 170.327 235.554 223.421 228.711 256.62C221.868 289.819 196.186 365.258 196.186 365.258C196.186 365.258 177.094 367.453 174.391 363.567C175.066 352.584 187.739 281.625 194.159 271.15C191.962 259.83 177.003 224.912 183.85 199.575" stroke="#1B1918" stroke-width="1.27899" stroke-miterlimit="10" stroke-linecap="round" stroke-linejoin="round"/>
<path d="M163.606 172.593C163.606 172.593 169.406 176.033 183.925 176.273C198.444 176.512 217.042 172.753 223.522 172.593C230.001 172.433 233.96 170.985 233.96 170.985V165.842L163.606 168.113L162.26 171.063L163.606 172.593Z" fill="#1D1316"/>
<path d="M163.606 172.593C163.606 172.593 169.406 176.033 183.925 176.273C198.444 176.512 217.042 172.753 223.522 172.593C230.001 172.433 233.96 170.985 233.96 170.985V165.842L163.606 168.113L162.26 171.063L163.606 172.593Z" stroke="#1B1918" stroke-width="0.639492" stroke-miterlimit="10" stroke-linecap="round" stroke-linejoin="round"/>
<path d="M187.021 74.7838C187.021 74.7838 176.251 71.7434 165.479 91.0051C154.709 110.264 157.876 165.512 163.705 169.82C169.534 174.128 192.471 175.142 200.96 173.495C209.451 171.848 225.671 171.594 230.866 170.454C236.062 169.313 237.456 157.022 236.822 145.871C236.188 134.72 236.271 91.9813 209.451 78.3308C195.765 71.9952 187.021 74.7838 187.021 74.7838" fill="#FF0000"/>
<path d="M187.021 74.7838C187.021 74.7838 176.251 71.7434 165.479 91.0051C154.709 110.264 157.876 165.512 163.705 169.82C169.534 174.128 192.471 175.142 200.96 173.495C209.451 171.848 225.671 171.594 230.866 170.454C236.062 169.313 237.456 157.022 236.822 145.871C236.188 134.72 236.271 91.9813 209.451 78.3308C195.765 71.9952 187.021 74.7838 187.021 74.7838V74.7838Z" stroke="#1B1918" stroke-width="1.27899" stroke-miterlimit="10" stroke-linecap="round" stroke-linejoin="round"/>
<path d="M195.384 99.1133C195.384 99.1133 202.69 148.613 240.242 138.648C272.555 130.074 264.783 81.4147 264.783 81.4147C264.783 81.4147 264.699 80.5691 262.333 80.5691C259.968 80.5691 253.547 78.1194 253.547 81.8375C253.547 85.5555 251.863 107.124 242.227 109.369C232.591 111.615 228.14 97.9398 226.535 95.4901" fill="#FF0000"/>
<path d="M195.384 99.1133C195.384 99.1133 202.69 148.613 240.242 138.648C272.555 130.074 264.783 81.4147 264.783 81.4147C264.783 81.4147 264.699 80.5691 262.333 80.5691C259.968 80.5691 253.547 78.1194 253.547 81.8375C253.547 85.5555 251.863 107.124 242.227 109.369C232.591 111.615 228.14 97.9398 226.535 95.4901" stroke="#1B1918" stroke-width="1.27899" stroke-miterlimit="10" stroke-linecap="round" stroke-linejoin="round"/>
<path d="M262.757 82.0489C262.757 82.0489 268.755 73.8978 267.487 71.1528C266.22 68.4046 260.138 65.5353 258.617 65.2368C257.097 64.9415 252.535 68.4046 252.155 69.5455C251.775 70.6865 252.577 74.4449 253.253 75.334C253.929 76.22 255.323 80.7805 255.323 81.2468C255.323 81.71 262.757 82.0489 262.757 82.0489" fill="white"/>
<path d="M262.757 82.0489C262.757 82.0489 268.755 73.8978 267.487 71.1528C266.22 68.4046 260.138 65.5353 258.617 65.2368C257.097 64.9415 252.535 68.4046 252.155 69.5455C251.775 70.6865 252.577 74.4449 253.253 75.334C253.929 76.22 255.323 80.7805 255.323 81.2468C255.323 81.71 262.757 82.0489 262.757 82.0489V82.0489Z" stroke="#1B1918" stroke-width="1.27899" stroke-miterlimit="10" stroke-linecap="round" stroke-linejoin="round"/>
<path d="M258.785 69.3341C258.785 69.3341 256.04 72.0823 257.729 73.8978C259.419 75.7133 256.589 76.9817 256.589 76.9817" fill="white"/>
<path d="M258.785 69.3341C258.785 69.3341 256.04 72.0823 257.729 73.8978C259.419 75.7133 256.589 76.9817 256.589 76.9817" stroke="#1B1918" stroke-width="1.27899" stroke-miterlimit="10" stroke-linecap="round" stroke-linejoin="round"/>
<path d="M252.4 72.9714L248.985 74.8273L247.127 76.3879H249.83L253.252 75.334L252.4 72.9714" fill="white"/>
<path d="M252.4 72.9714L248.985 74.8273L247.127 76.3879H249.83L253.252 75.334L252.4 72.9714Z" stroke="#1B1918" stroke-width="1.27899" stroke-miterlimit="10" stroke-linecap="round" stroke-linejoin="round"/>
<path d="M192.471 65.2896C192.471 65.2896 198.004 66.0077 201.467 63.9809C208.648 58.239 194.582 35.2188 194.582 35.2188C194.582 35.2188 170.337 47.6351 170.337 47.89C170.337 48.1419 175.49 64.1083 175.828 64.1922C176.166 64.2762 180.474 65.7964 180.474 65.7964C180.474 65.7964 181.488 72.1351 180.221 76.4407C182.671 79.4841 193.653 80.5815 199.567 76.8635C201.256 75.6821 200.116 74.6563 200.116 74.6563C200.116 74.6563 197.451 67.2233 197.157 65.2803" fill="white"/>
<path d="M192.471 65.2896C192.471 65.2896 198.004 66.0077 201.467 63.9809C208.648 58.239 194.582 35.2188 194.582 35.2188C194.582 35.2188 170.337 47.6351 170.337 47.89C170.337 48.1419 175.49 64.1083 175.828 64.1922C176.166 64.2762 180.474 65.7964 180.474 65.7964C180.474 65.7964 181.488 72.1351 180.221 76.4407C182.671 79.4841 193.653 80.5815 199.567 76.8635C201.256 75.6821 200.116 74.6563 200.116 74.6563C200.116 74.6563 197.451 67.2233 197.157 65.2803" stroke="#1B1918" stroke-width="1.27899" stroke-miterlimit="10" stroke-linecap="round" stroke-linejoin="round"/>
<path d="M197.474 66.6327C197.474 66.6327 192.955 66.4244 192.055 65.3736C197.304 65.5539 197.154 65.5229 197.154 65.5229L197.474 66.6327Z" fill="#1D1316"/>
<path d="M197.474 66.6327C197.474 66.6327 192.955 66.4244 192.055 65.3736C197.304 65.5539 197.154 65.5229 197.154 65.5229L197.474 66.6327Z" stroke="#1B1918" stroke-width="0.639492" stroke-miterlimit="10" stroke-linecap="round" stroke-linejoin="round"/>
<path d="M184.191 51.605C184.191 51.605 176.251 44.3399 175.321 52.3667C174.392 60.3903 180.812 57.8567 183.093 57.6889C183.093 57.6889 184.276 61.5747 183.093 64.1923C181.91 66.813 174.561 72.4709 171.266 69.5145C167.972 66.5581 161.889 54.6982 162.396 48.5896C162.903 42.4809 165.437 37.4136 169.661 35.0479C173.885 32.6822 189.429 29.1351 190.865 23.9808C191.541 21.1954 194.92 23.1383 196.525 26.6854C198.13 30.2325 201.003 31.5008 198.384 34.1184C195.765 36.7391 185.121 40.3701 183.854 40.7089C184.107 46.6217 187.74 51.689 187.148 51.86C186.557 52.0278 184.952 53.0413 184.191 51.605" fill="#1D1316"/>
<path d="M184.191 51.605C184.191 51.605 176.251 44.3399 175.321 52.3667C174.392 60.3903 180.812 57.8567 183.093 57.6889C183.093 57.6889 184.276 61.5747 183.093 64.1923C181.91 66.813 174.561 72.4709 171.266 69.5145C167.972 66.5581 161.889 54.6982 162.396 48.5896C162.903 42.4809 165.437 37.4136 169.661 35.0479C173.885 32.6822 189.429 29.1351 190.865 23.9808C191.541 21.1954 194.92 23.1383 196.525 26.6854C198.13 30.2325 201.003 31.5008 198.384 34.1184C195.765 36.7391 185.121 40.3701 183.854 40.7089C184.107 46.6217 187.74 51.689 187.148 51.86C186.557 52.0278 184.952 53.0413 184.191 51.605V51.605Z" stroke="#1B1918" stroke-width="0.639492" stroke-miterlimit="10" stroke-linecap="round" stroke-linejoin="round"/>
<path d="M224.909 74.6812C224.909 74.6812 229.053 74.6563 228.629 77.8894C228.204 81.1194 224.909 82.0489 224.909 82.0489" fill="white"/>
<path d="M224.909 74.6812C224.909 74.6812 229.053 74.6563 228.629 77.8894C228.204 81.1194 224.909 82.0489 224.909 82.0489" stroke="#1B1918" stroke-width="1.27899" stroke-miterlimit="10" stroke-linecap="round" stroke-linejoin="round"/>
<path d="M62.9538 180.82C62.9538 181.109 62.9656 181.392 62.9834 181.674C58.7889 182.609 54.2199 181.445 50.9541 178.18C45.8786 173.104 45.8786 164.876 50.9541 159.801C56.0295 154.726 64.2577 154.726 69.3331 159.801C71.9349 162.403 73.203 165.835 73.1374 169.246C67.3923 169.976 62.9538 174.879 62.9538 180.82" fill="white"/>
<path d="M62.9538 180.82C62.9538 181.109 62.9656 181.392 62.9834 181.674C58.7889 182.609 54.2199 181.445 50.9541 178.18C45.8786 173.104 45.8786 164.876 50.9541 159.801C56.0295 154.726 64.2577 154.726 69.3331 159.801C71.9349 162.403 73.203 165.835 73.1374 169.246C67.3923 169.976 62.9538 174.879 62.9538 180.82V180.82Z" stroke="#1B1918" stroke-width="1.27899" stroke-miterlimit="10" stroke-linecap="round" stroke-linejoin="round"/>
<path d="M86.2921 180.82C86.2921 187.265 81.0678 192.489 74.6228 192.489C68.4667 192.489 63.4242 187.72 62.9834 181.674C65.3113 181.156 67.5232 179.992 69.3332 178.18C71.8041 175.706 73.075 172.485 73.1374 169.246C73.6227 169.184 74.1198 169.151 74.6228 169.151C81.0678 169.151 86.2921 174.375 86.2921 180.82Z" fill="#1D1316"/>
<path d="M86.2921 180.82C86.2921 187.265 81.0678 192.489 74.6228 192.489C68.4667 192.489 63.4242 187.72 62.9834 181.674C65.3113 181.156 67.5232 179.992 69.3332 178.18C71.8041 175.706 73.075 172.485 73.1374 169.246C73.6227 169.184 74.1198 169.151 74.6228 169.151C81.0678 169.151 86.2921 174.375 86.2921 180.82Z" stroke="#1B1918" stroke-width="0.639492" stroke-miterlimit="10" stroke-linecap="round" stroke-linejoin="round"/>
<path d="M420.59 125.336C420.59 132.388 414.873 138.106 407.819 138.106C400.768 138.106 395.048 132.388 395.048 125.336C395.048 118.283 400.768 112.566 407.819 112.566C414.873 112.566 420.59 118.283 420.59 125.336Z" fill="white"/>
<path d="M420.59 125.336C420.59 132.388 414.873 138.106 407.819 138.106C400.768 138.106 395.048 132.388 395.048 125.336C395.048 118.283 400.768 112.566 407.819 112.566C414.873 112.566 420.59 118.283 420.59 125.336Z" stroke="#1B1918" stroke-width="1.27899" stroke-miterlimit="10" stroke-linecap="round" stroke-linejoin="round"/>
<path d="M414.68 131.034H400.961C400.961 131.034 400.834 129.446 401.658 129.064C402.485 128.683 403.119 120.873 405.472 119.92C405.839 119.771 406.147 119.645 406.408 119.54C406.336 119.363 406.296 119.169 406.296 118.968C406.296 118.125 406.977 117.443 407.819 117.443C408.662 117.443 409.343 118.125 409.343 118.968C409.343 119.169 409.302 119.363 409.231 119.54C409.492 119.645 409.803 119.771 410.17 119.92C412.52 120.873 413.154 128.683 413.981 129.064C414.805 129.446 414.68 131.034 414.68 131.034" fill="white"/>
<path d="M414.68 131.034H400.961C400.961 131.034 400.834 129.446 401.658 129.064C402.485 128.683 403.119 120.873 405.472 119.92C405.839 119.771 406.147 119.645 406.408 119.54C406.336 119.363 406.296 119.169 406.296 118.968C406.296 118.125 406.977 117.443 407.819 117.443C408.662 117.443 409.343 118.125 409.343 118.968C409.343 119.169 409.302 119.363 409.231 119.54C409.492 119.645 409.803 119.771 410.17 119.92C412.52 120.873 413.154 128.683 413.981 129.064C414.805 129.446 414.68 131.034 414.68 131.034V131.034Z" stroke="#1B1918" stroke-width="1.27899" stroke-miterlimit="10" stroke-linecap="round" stroke-linejoin="round"/>
<path d="M410.014 131.034C410.014 132.246 409.031 133.229 407.819 133.229C406.606 133.229 405.624 132.246 405.624 131.034H410.014Z" fill="#1B1918"/>
<path d="M410.014 131.034C410.014 132.246 409.031 133.229 407.819 133.229C406.606 133.229 405.624 132.246 405.624 131.034H410.014Z" stroke="#1B1918" stroke-width="1.27899" stroke-miterlimit="10" stroke-linecap="round" stroke-linejoin="round"/>
<path d="M385.51 320.259H383.269V309.699H385.51V320.259Z" fill="white"/>
<path d="M385.51 320.259H383.269V309.699H385.51V320.259Z" stroke="#1B1918" stroke-width="1.27899" stroke-miterlimit="10" stroke-linecap="round" stroke-linejoin="round"/>
<path d="M228.67 320.259H226.431V309.699H228.67V320.259Z" fill="white"/>
<path d="M228.67 320.259H226.431V309.699H228.67V320.259Z" stroke="#1B1918" stroke-width="1.27899" stroke-miterlimit="10" stroke-linecap="round" stroke-linejoin="round"/>
<path d="M172.047 320.259H169.808V309.699H172.047V320.259Z" fill="white"/>
<path d="M172.047 320.259H169.808V309.699H172.047V320.259Z" stroke="#1B1918" stroke-width="1.27899" stroke-miterlimit="10" stroke-linecap="round" stroke-linejoin="round"/>
<path d="M426.528 32.8594H386.213V23.1322H426.528V32.8594Z" fill="#1D1316"/>
<path d="M426.528 32.8594H386.213V23.1322H426.528V32.8594Z" stroke="#1B1918" stroke-width="0.639492" stroke-miterlimit="10" stroke-linecap="round" stroke-linejoin="round"/>
<path d="M426.528 179.105H386.213V169.378H426.528V179.105Z" fill="#1D1316"/>
<path d="M426.528 179.105H386.213V169.378H426.528V179.105Z" stroke="#1B1918" stroke-width="0.639492" stroke-miterlimit="10" stroke-linecap="round" stroke-linejoin="round"/>
<path d="M426.528 158.692H386.213V148.965H426.528V158.692Z" fill="#1D1316"/>
<path d="M426.528 158.692H386.213V148.965H426.528V158.692Z" stroke="#1B1918" stroke-width="0.639492" stroke-miterlimit="10" stroke-linecap="round" stroke-linejoin="round"/>
<path d="M504.214 185.957L498.767 184.415C498.187 184.252 497.566 184.383 497.104 184.766L492.743 188.381C491.583 189.346 489.817 188.558 489.758 187.047L489.539 181.388C489.517 180.788 489.199 180.238 488.691 179.917L483.905 176.888C482.629 176.079 482.832 174.156 484.255 173.634L489.567 171.679C490.129 171.471 490.556 171 490.706 170.417L492.107 164.932C492.481 163.466 494.375 163.066 495.31 164.255L498.811 168.704C499.182 169.176 499.762 169.435 500.361 169.397L506.014 169.035C507.52 168.938 508.487 170.614 507.645 171.87L504.494 176.576C504.161 177.075 504.095 177.707 504.317 178.265L506.407 183.527C506.965 184.933 505.67 186.368 504.214 185.957" fill="white"/>
<path d="M504.214 185.957L498.767 184.415C498.187 184.252 497.566 184.383 497.104 184.766L492.743 188.381C491.583 189.346 489.817 188.558 489.758 187.047L489.539 181.388C489.517 180.788 489.199 180.238 488.691 179.917L483.905 176.888C482.629 176.079 482.832 174.156 484.255 173.634L489.567 171.679C490.129 171.471 490.556 171 490.706 170.417L492.107 164.932C492.481 163.466 494.375 163.066 495.31 164.255L498.811 168.704C499.182 169.176 499.762 169.435 500.361 169.397L506.014 169.035C507.52 168.938 508.487 170.614 507.645 171.87L504.494 176.576C504.161 177.075 504.095 177.707 504.317 178.265L506.407 183.527C506.965 184.933 505.67 186.368 504.214 185.957V185.957Z" stroke="#1B1918" stroke-width="1.27899" stroke-miterlimit="10" stroke-linecap="round" stroke-linejoin="round"/>
<path d="M119.313 127.148H90.1484V97.9839H119.313V127.148Z" fill="white"/>
<path d="M119.313 127.148H90.1484V97.9839H119.313V127.148Z" stroke="#1B1918" stroke-width="1.27899" stroke-miterlimit="10" stroke-linecap="round" stroke-linejoin="round"/>
<path d="M104.731 102.967V122.165" stroke="#1B1918" stroke-width="1.27899" stroke-miterlimit="10" stroke-linecap="round" stroke-linejoin="round"/>
<path d="M95.166 112.566H114.056" stroke="#1B1918" stroke-width="1.27899" stroke-miterlimit="10" stroke-linecap="round" stroke-linejoin="round"/>
<path d="M516.56 53.8428C516.56 43.5562 508.222 35.2187 497.935 35.2187C487.648 35.2187 479.311 43.5562 479.311 53.8428C479.311 64.1293 487.648 72.4669 497.935 72.4669C508.222 72.4669 516.56 64.1293 516.56 53.8428Z" fill="white"/>
<path d="M516.56 53.8428C516.56 43.5562 508.222 35.2187 497.935 35.2187C487.648 35.2187 479.311 43.5562 479.311 53.8428C479.311 64.1293 487.648 72.4669 497.935 72.4669C508.222 72.4669 516.56 64.1293 516.56 53.8428Z" stroke="#1B1918" stroke-width="1.27898" stroke-miterlimit="10" stroke-linecap="round" stroke-linejoin="round"/>
<path d="M508.366 51.7932H506.545V63.1391H500.703V57.5005C500.703 56.097 499.565 54.9556 498.161 54.9556C496.755 54.9556 495.616 56.097 495.616 57.5005V63.1391H489.775V51.7932H487.498L497.756 41.7572L508.366 51.7932" fill="white"/>
<path d="M508.366 51.7932H506.545V63.1391H500.703V57.5005C500.703 56.097 499.565 54.9556 498.161 54.9556C496.755 54.9556 495.616 56.097 495.616 57.5005V63.1391H489.775V51.7932H487.498L497.756 41.7572L508.366 51.7932Z" stroke="#1B1918" stroke-width="1.27898" stroke-miterlimit="10" stroke-linecap="round" stroke-linejoin="round"/>
<path d="M302.144 206.357C304.215 206.357 305.95 206.871 307.347 207.898C308.762 208.925 309.713 210.323 310.202 212.091H307.777C307.356 211.013 306.649 210.146 305.655 209.489C304.678 208.832 303.517 208.504 302.169 208.504C300.957 208.504 299.871 208.79 298.911 209.363C297.951 209.919 297.194 210.718 296.638 211.762C296.099 212.806 295.83 214.036 295.83 215.45C295.83 216.898 296.108 218.153 296.663 219.214C297.219 220.258 297.985 221.066 298.962 221.638C299.955 222.194 301.092 222.472 302.372 222.472C303.466 222.472 304.468 222.236 305.377 221.765C306.287 221.293 307.027 220.611 307.6 219.719C308.189 218.809 308.543 217.749 308.661 216.536H301.664V214.819H310.606V216.94C310.454 218.355 310.016 219.635 309.292 220.78C308.568 221.925 307.592 222.834 306.362 223.507C305.133 224.181 303.735 224.518 302.169 224.518C300.452 224.518 298.936 224.139 297.623 223.381C296.31 222.607 295.282 221.537 294.542 220.173C293.817 218.793 293.455 217.218 293.455 215.45C293.455 213.682 293.817 212.116 294.542 210.752C295.282 209.371 296.31 208.294 297.623 207.519C298.936 206.744 300.444 206.357 302.144 206.357ZM306.817 254.637C306.817 255.126 306.783 255.547 306.716 255.9H295.628C295.678 257.483 296.124 258.67 296.966 259.462C297.825 260.253 298.869 260.649 300.098 260.649C301.21 260.649 302.136 260.371 302.877 259.815C303.634 259.243 304.098 258.485 304.266 257.542H306.716C306.548 258.502 306.169 259.361 305.579 260.118C305.007 260.876 304.257 261.465 303.331 261.886C302.405 262.307 301.361 262.518 300.199 262.518C298.869 262.518 297.69 262.232 296.663 261.659C295.636 261.086 294.828 260.27 294.238 259.209C293.666 258.131 293.38 256.868 293.38 255.42C293.38 253.972 293.666 252.709 294.238 251.632C294.828 250.554 295.636 249.729 296.663 249.156C297.69 248.584 298.869 248.297 300.199 248.297C301.546 248.297 302.717 248.584 303.71 249.156C304.721 249.729 305.487 250.495 306.009 251.455C306.548 252.415 306.817 253.475 306.817 254.637ZM304.493 254.789C304.544 253.762 304.375 252.903 303.988 252.212C303.601 251.522 303.07 251.008 302.397 250.672C301.723 250.335 300.991 250.167 300.199 250.167C298.936 250.167 297.876 250.562 297.017 251.354C296.158 252.128 295.695 253.273 295.628 254.789H304.493ZM316.441 260.32V262.341H314.723C313.309 262.341 312.248 262.004 311.541 261.331C310.85 260.657 310.505 259.529 310.505 257.946V250.47H308.434V248.474H310.505V245.014H312.829V248.474H316.416V250.47H312.829V257.997C312.829 258.889 312.989 259.504 313.309 259.84C313.646 260.16 314.218 260.32 315.026 260.32H316.441ZM305.327 295.719C305.327 296.561 305.125 297.344 304.721 298.068C304.316 298.792 303.702 299.381 302.877 299.836C302.052 300.29 301.033 300.518 299.82 300.518C298.642 300.518 297.589 300.307 296.663 299.886C295.754 299.449 295.021 298.859 294.466 298.118C293.927 297.361 293.615 296.502 293.531 295.542H295.981C296.032 296.047 296.2 296.544 296.486 297.032C296.789 297.504 297.21 297.899 297.749 298.219C298.305 298.522 298.97 298.674 299.745 298.674C300.755 298.674 301.53 298.405 302.068 297.866C302.607 297.327 302.877 296.636 302.877 295.795C302.877 295.07 302.683 294.481 302.296 294.026C301.925 293.572 301.462 293.218 300.907 292.966C300.351 292.696 299.593 292.41 298.633 292.107C297.505 291.736 296.596 291.391 295.905 291.071C295.232 290.734 294.651 290.238 294.163 289.581C293.691 288.924 293.455 288.057 293.455 286.979C293.455 286.053 293.674 285.237 294.112 284.529C294.567 283.822 295.207 283.275 296.032 282.888C296.874 282.5 297.859 282.307 298.987 282.307C300.738 282.307 302.127 282.736 303.155 283.595C304.182 284.437 304.779 285.514 304.948 286.828H302.473C302.338 286.121 301.976 285.498 301.386 284.959C300.797 284.42 299.997 284.151 298.987 284.151C298.061 284.151 297.32 284.395 296.764 284.883C296.209 285.354 295.931 286.028 295.931 286.904C295.931 287.594 296.108 288.158 296.461 288.596C296.832 289.017 297.286 289.354 297.825 289.606C298.364 289.842 299.105 290.111 300.048 290.415C301.193 290.785 302.111 291.139 302.801 291.475C303.508 291.812 304.106 292.326 304.594 293.016C305.083 293.69 305.327 294.591 305.327 295.719ZM315.035 298.32V300.341H313.317C311.903 300.341 310.842 300.004 310.135 299.331C309.444 298.657 309.099 297.529 309.099 295.946V288.47H307.028V286.474H309.099V283.014H311.423V286.474H315.01V288.47H311.423V295.997C311.423 296.889 311.583 297.504 311.903 297.84C312.24 298.16 312.812 298.32 313.62 298.32H315.035ZM299.745 324.297C301.092 324.297 302.228 324.634 303.155 325.308C304.098 325.981 304.754 326.882 305.125 328.01V324.474H307.423V338.341H305.125V334.805C304.754 335.933 304.098 336.834 303.155 337.507C302.228 338.181 301.092 338.518 299.745 338.518C298.515 338.518 297.421 338.232 296.461 337.659C295.501 337.086 294.744 336.27 294.188 335.209C293.649 334.131 293.38 332.868 293.38 331.42C293.38 329.972 293.649 328.709 294.188 327.632C294.744 326.554 295.501 325.729 296.461 325.156C297.421 324.584 298.515 324.297 299.745 324.297ZM300.401 326.343C298.987 326.343 297.85 326.798 296.992 327.707C296.15 328.6 295.729 329.837 295.729 331.42C295.729 333.003 296.15 334.249 296.992 335.158C297.85 336.051 298.987 336.497 300.401 336.497C301.311 336.497 302.119 336.287 302.826 335.866C303.55 335.445 304.114 334.855 304.518 334.098C304.923 333.323 305.125 332.431 305.125 331.42C305.125 330.41 304.923 329.517 304.518 328.743C304.114 327.968 303.55 327.379 302.826 326.975C302.119 326.554 301.311 326.343 300.401 326.343ZM317.699 336.32V338.341H315.981C314.567 338.341 313.506 338.004 312.799 337.331C312.108 336.657 311.763 335.529 311.763 333.946V326.47H309.692V324.474H311.763V321.014H314.087V324.474H317.674V326.47H314.087V333.997C314.087 334.889 314.247 335.504 314.567 335.84C314.904 336.16 315.476 336.32 316.284 336.32H317.699ZM306.817 368.637C306.817 369.126 306.783 369.547 306.716 369.9H295.628C295.678 371.483 296.124 372.67 296.966 373.462C297.825 374.253 298.869 374.649 300.098 374.649C301.21 374.649 302.136 374.371 302.877 373.815C303.634 373.243 304.098 372.485 304.266 371.542H306.716C306.548 372.502 306.169 373.361 305.579 374.118C305.007 374.876 304.257 375.465 303.331 375.886C302.405 376.307 301.361 376.518 300.199 376.518C298.869 376.518 297.69 376.232 296.663 375.659C295.636 375.086 294.828 374.27 294.238 373.209C293.666 372.131 293.38 370.868 293.38 369.42C293.38 367.972 293.666 366.709 294.238 365.632C294.828 364.554 295.636 363.729 296.663 363.156C297.69 362.584 298.869 362.297 300.199 362.297C301.546 362.297 302.717 362.584 303.71 363.156C304.721 363.729 305.487 364.495 306.009 365.455C306.548 366.415 306.817 367.475 306.817 368.637ZM304.493 368.789C304.544 367.762 304.375 366.903 303.988 366.212C303.601 365.522 303.07 365.008 302.397 364.672C301.723 364.335 300.991 364.167 300.199 364.167C298.936 364.167 297.876 364.562 297.017 365.354C296.158 366.128 295.695 367.273 295.628 368.789H304.493ZM299.745 400.297C301.092 400.297 302.228 400.634 303.155 401.308C304.098 401.981 304.754 402.882 305.125 404.01V395.65H307.423V414.341H305.125V410.805C304.754 411.933 304.098 412.834 303.155 413.507C302.228 414.181 301.092 414.518 299.745 414.518C298.515 414.518 297.421 414.232 296.461 413.659C295.501 413.086 294.744 412.27 294.188 411.209C293.649 410.131 293.38 408.868 293.38 407.42C293.38 405.972 293.649 404.709 294.188 403.632C294.744 402.554 295.501 401.729 296.461 401.156C297.421 400.584 298.515 400.297 299.745 400.297ZM300.401 402.343C298.987 402.343 297.85 402.798 296.992 403.707C296.15 404.6 295.729 405.837 295.729 407.42C295.729 409.003 296.15 410.249 296.992 411.158C297.85 412.051 298.987 412.497 300.401 412.497C301.311 412.497 302.119 412.287 302.826 411.866C303.55 411.445 304.114 410.855 304.518 410.098C304.923 409.323 305.125 408.431 305.125 407.42C305.125 406.41 304.923 405.517 304.518 404.743C304.114 403.968 303.55 403.379 302.826 402.975C302.119 402.554 301.311 402.343 300.401 402.343Z" fill="white"/>
<path d="M320 269L292 259L289 244.5L310 243.5L334.5 255L320 269Z" fill="#1D1316" stroke="black"/>
</g>
<defs>
<clipPath id="clip0_22_44">
<rect width="573" height="402" fill="white"/>
</clipPath>
</defs>
</svg>
