<svg width="40" height="40" viewBox="0 0 40 40" fill="none" xmlns="http://www.w3.org/2000/svg">
<path d="M2.49951 13.1251H1.24951V10.6251C1.25044 9.79663 1.57998 9.00231 2.16583 8.41646C2.75168 7.83061 3.546 7.50108 4.37451 7.50014H25.6245V6.25014H24.3745C24.2509 6.25015 24.1301 6.2135 24.0273 6.14482C23.9245 6.07614 23.8444 5.97853 23.7971 5.86433C23.7498 5.75012 23.7374 5.62445 23.7615 5.50321C23.7856 5.38197 23.8451 5.2706 23.9326 5.18319L27.6826 1.43319C27.7406 1.37515 27.8095 1.32911 27.8853 1.2977C27.9612 1.26629 28.0424 1.25012 28.1245 1.25012C28.2066 1.25012 28.2879 1.26629 28.3637 1.2977C28.4395 1.32911 28.5084 1.37515 28.5665 1.43319L32.3165 5.18319C32.4039 5.2706 32.4634 5.38197 32.4875 5.50321C32.5116 5.62445 32.4993 5.75012 32.452 5.86433C32.4046 5.97853 32.3245 6.07614 32.2218 6.14482C32.119 6.2135 31.9981 6.25015 31.8745 6.25014H30.6245V7.50014H33.1245C33.953 7.50108 34.7473 7.83061 35.3332 8.41646C35.919 9.00231 36.2486 9.79663 36.2495 10.6251V23.1251H34.9995V10.6251C34.9989 10.128 34.8012 9.65146 34.4497 9.29996C34.0982 8.94845 33.6216 8.75072 33.1245 8.75014H30.6245V20.0001H29.3745V5.62514C29.3745 5.45938 29.4404 5.30041 29.5576 5.1832C29.6748 5.06599 29.8338 5.00014 29.9995 5.00014H30.3657L28.1245 2.75897L25.8833 5.00014H26.2495C26.4153 5.00014 26.5742 5.06599 26.6915 5.1832C26.8087 5.30041 26.8745 5.45938 26.8745 5.62514V20.6251H25.6245V8.75014H4.37451C3.87741 8.75072 3.40083 8.94845 3.04933 9.29996C2.69782 9.65146 2.50009 10.128 2.49951 10.6251V13.1251ZM4.37451 32.5001H14.7844L13.2844 37.5001H11.8745V38.7501H25.6245V37.5001H24.2146L23.4107 34.8205L22.2133 35.1798L22.9095 37.5001H14.5892L16.0892 32.5001H20.6245V31.2501H4.37451C3.87741 31.2496 3.40083 31.0518 3.04933 30.7003C2.69782 30.3488 2.50009 29.8722 2.49951 29.3751V28.7501H19.9995V27.5001H2.49951V14.3751H1.24951V29.3751C1.25044 30.2037 1.57998 30.998 2.16583 31.5838C2.75168 32.1697 3.546 32.4992 4.37451 32.5001ZM23.1245 21.8751V11.8751H20.6245V26.2501H4.37451V25.0001H6.87451V20.0001C6.87451 19.8344 6.94036 19.6754 7.05757 19.5582C7.17478 19.441 7.33375 19.3751 7.49951 19.3751H11.2495C11.4153 19.3751 11.5742 19.441 11.6915 19.5582C11.8087 19.6754 11.8745 19.8344 11.8745 20.0001V25.0001H13.1245V15.6251C13.1245 15.4594 13.1904 15.3004 13.3076 15.1832C13.4248 15.066 13.5838 15.0001 13.7495 15.0001H17.4995C17.6653 15.0001 17.8242 15.066 17.9415 15.1832C18.0587 15.3004 18.1245 15.4594 18.1245 15.6251V25.0001H19.3745V11.2501C19.3745 11.0844 19.4404 10.9254 19.5576 10.8082C19.6748 10.691 19.8338 10.6251 19.9995 10.6251H23.7495C23.9153 10.6251 24.0742 10.691 24.1915 10.8082C24.3087 10.9254 24.3745 11.0844 24.3745 11.2501V21.8751H23.1245ZM10.6245 20.6251H8.12451V25.0001H10.6245V20.6251ZM16.8745 16.2501H14.3745V25.0001H16.8745V16.2501ZM4.37451 10.0001V11.2501H5.62451V10.0001H4.37451ZM8.12451 10.0001H6.87451V11.2501H8.12451V10.0001ZM9.37451 10.0001V11.2501H10.6245V10.0001H9.37451ZM38.2001 35.5496C38.5505 35.9019 38.7479 36.3782 38.7495 36.8751C38.7497 37.1214 38.7014 37.3654 38.6072 37.5929C38.5131 37.8205 38.375 38.0273 38.2008 38.2015C38.0267 38.3756 37.8199 38.5137 37.5923 38.6079C37.3647 38.702 37.1208 38.7504 36.8745 38.7501C36.3781 38.7458 35.9028 38.5488 35.549 38.2007L32.5573 35.2091C30.9837 36.1374 29.1255 36.4599 27.3312 36.116C25.5368 35.7722 23.9294 34.7857 22.8104 33.3414C21.6915 31.8972 21.1377 30.0944 21.2529 28.271C21.3681 26.4476 22.1444 24.7289 23.4363 23.437C24.7282 22.1451 26.447 21.3687 28.2704 21.2535C30.0937 21.1383 31.8965 21.6921 33.3408 22.8111C34.785 23.9301 35.7715 25.5374 36.1154 27.3318C36.4592 29.1262 36.1368 30.9843 35.2085 32.558L38.2001 35.5496ZM34.9995 28.7501C34.9995 27.514 34.633 26.3056 33.9462 25.2778C33.2594 24.25 32.2833 23.4489 31.1413 22.9759C29.9992 22.5029 28.7426 22.3791 27.5302 22.6202C26.3178 22.8614 25.2042 23.4566 24.3301 24.3307C23.456 25.2048 22.8608 26.3184 22.6196 27.5308C22.3784 28.7432 22.5022 29.9999 22.9753 31.1419C23.4483 32.284 24.2494 33.2601 25.2772 33.9468C26.305 34.6336 27.5134 35.0001 28.7495 35.0001C30.4065 34.9983 31.9952 34.3392 33.1669 33.1675C34.3385 31.9958 34.9976 30.4072 34.9995 28.7501ZM37.3161 36.4336L34.4733 33.5907C34.2038 33.909 33.9083 34.2044 33.5901 34.474L36.4329 37.3167C36.4903 37.3772 36.5593 37.4255 36.6357 37.4589C36.712 37.4923 36.7943 37.5101 36.8777 37.5112C36.9611 37.5122 37.0438 37.4966 37.121 37.4652C37.1983 37.4338 37.2684 37.3873 37.3274 37.3283C37.3863 37.2694 37.4329 37.1992 37.4643 37.122C37.4957 37.0448 37.5113 36.962 37.5102 36.8787C37.5091 36.7953 37.4914 36.713 37.458 36.6366C37.4246 36.5602 37.3762 36.4913 37.3158 36.4339L37.3161 36.4336ZM33.7495 28.7501C33.7495 29.7391 33.4563 30.7058 32.9069 31.528C32.3575 32.3502 31.5766 32.9911 30.6629 33.3695C29.7493 33.748 28.744 33.847 27.7741 33.6541C26.8042 33.4611 25.9132 32.9849 25.214 32.2857C24.5147 31.5864 24.0385 30.6955 23.8456 29.7256C23.6527 28.7557 23.7517 27.7504 24.1301 26.8367C24.5086 25.9231 25.1494 25.1422 25.9717 24.5928C26.7939 24.0434 27.7606 23.7501 28.7495 23.7501C30.0751 23.7516 31.346 24.2789 32.2834 25.2163C33.2208 26.1536 33.748 27.4245 33.7495 28.7501ZM32.4995 28.7501C32.4995 28.0085 32.2796 27.2834 31.8675 26.6668C31.4555 26.0501 30.8698 25.5694 30.1846 25.2856C29.4994 25.0018 28.7453 24.9275 28.0179 25.0722C27.2905 25.2169 26.6223 25.574 26.0979 26.0985C25.5734 26.6229 25.2163 27.2911 25.0716 28.0186C24.9269 28.746 25.0011 29.5 25.285 30.1852C25.5688 30.8704 26.0494 31.4561 26.6661 31.8682C27.2828 32.2802 28.0078 32.5001 28.7495 32.5001C29.7437 32.4991 30.6969 32.1036 31.4 31.4006C32.103 30.6976 32.4984 29.7444 32.4995 28.7501ZM26.2495 28.7501H27.4995C27.4999 28.4187 27.6317 28.101 27.8661 27.8667C28.1004 27.6324 28.4181 27.5005 28.7495 27.5001V26.2501C28.0867 26.2509 27.4512 26.5145 26.9826 26.9832C26.5139 27.4519 26.2503 28.0873 26.2495 28.7501ZM34.3745 5.00014H35.6245C35.6234 4.00592 35.228 3.05273 34.525 2.3497C33.8219 1.64668 32.8687 1.25124 31.8745 1.25014V2.50014C32.5373 2.50089 33.1728 2.76452 33.6415 3.2332C34.1101 3.70188 34.3738 4.33733 34.3745 5.00014Z" fill="white"/>
</svg>
