<svg width="41" height="40" viewBox="0 0 41 40" fill="none" xmlns="http://www.w3.org/2000/svg">
<g clip-path="url(#clip0_2_106)">
<path d="M34.8208 9.67328C35.1955 9.67328 35.5567 9.52461 35.8232 9.25805L39.7504 5.33087C40.2751 4.8061 39.9334 3.90548 39.1941 3.85908L37.1042 3.7279L38.4679 2.36423C38.6967 2.13541 38.6967 1.76439 38.4679 1.53564C38.239 1.30681 37.868 1.30681 37.6392 1.53564L36.2755 2.89931L36.1444 0.809472C36.0979 0.0687702 35.1964 -0.270604 34.6726 0.253145L30.7453 4.18032C30.4577 4.4679 30.3075 4.86564 30.333 5.27149L30.468 7.42211C27.1903 4.62743 22.966 3.02478 18.4912 3.02478C8.27326 3.02478 0.00366211 11.2934 0.00366211 21.5122C0.00366211 26.124 1.71147 30.5411 4.81264 33.9497C5.03053 34.189 5.40107 34.2065 5.64037 33.9888C5.87974 33.771 5.89724 33.4004 5.67951 33.161C2.77506 29.9687 1.17553 25.8318 1.17553 21.5122C1.17553 11.9644 8.94333 4.19657 18.4912 4.19657C22.9656 4.19657 27.1759 5.91141 30.3252 8.84961L27.6516 11.5231C25.2337 9.30367 22.0144 7.94547 18.4912 7.94547C11.0105 7.94547 4.92451 14.0315 4.92451 21.5122C4.92451 23.6651 5.44389 25.8096 6.4267 27.7138C6.42677 27.7139 6.42677 27.7139 6.42685 27.714C8.70411 32.1266 13.2904 35.0789 18.4913 35.0789C24.8998 35.0789 30.4734 30.5524 31.7761 24.2706C31.8418 23.9537 31.6382 23.6436 31.3213 23.5779C31.0045 23.5122 30.6944 23.7158 30.6287 24.0326C29.4421 29.7542 24.3377 33.907 18.4914 33.907C13.8344 33.907 9.61052 31.328 7.46826 27.1766C7.46826 27.1765 7.46818 27.1764 7.46818 27.1764C6.55802 25.4127 6.09646 23.507 6.09646 21.5122C6.09646 14.6776 11.6568 9.11735 18.4913 9.11735C21.6921 9.11735 24.6185 10.3441 26.8232 12.3515L24.1735 15.0012C22.6528 13.6725 20.6646 12.8662 18.4913 12.8662C13.7239 12.8662 9.84544 16.7448 9.84544 21.5121C9.84544 26.2794 13.7239 30.1579 18.4913 30.1579C23.2586 30.1579 27.1372 26.2794 27.1372 21.5121C27.1372 19.3388 26.331 17.3505 25.0021 15.8299L27.652 13.18C29.6439 15.367 30.8677 18.2651 30.8859 21.44C30.8877 21.7624 31.1497 22.0226 31.4717 22.0226H31.4752C31.7988 22.0207 32.0595 21.7569 32.0577 21.4333C32.0377 17.9383 30.683 14.7498 28.4807 12.3512L31.1545 9.6775C34.08 12.8055 35.8069 16.9908 35.8069 21.512C35.8068 31.0601 28.0391 38.8279 18.4912 38.8279C14.5358 38.8279 10.6682 37.4596 7.60076 34.9752C7.34912 34.7716 6.98044 34.8103 6.77662 35.0617C6.57295 35.3132 6.6117 35.6821 6.8631 35.8858C10.1386 38.5388 14.2682 39.9998 18.4912 39.9998C28.7092 39.9998 36.9787 31.7312 36.9787 21.5122C36.9787 17.5112 35.7214 13.7034 33.3428 10.5004C33.0966 10.1687 32.8401 9.84727 32.575 9.535C34.872 9.6793 34.7481 9.67328 34.8208 9.67328ZM25.9653 21.5122C25.9653 25.6334 22.6124 28.9862 18.4912 28.9862C14.37 28.9862 11.0172 25.6334 11.0172 21.5122C11.0172 17.3911 14.37 14.0383 18.4912 14.0383C20.3414 14.0383 22.0364 14.7143 23.3429 15.8319L20.6765 18.4983C20.0621 18.0516 19.3071 17.7872 18.4912 17.7872C16.4372 17.7872 14.7661 19.4583 14.7661 21.5122C14.7661 23.5662 16.4372 25.2373 18.4912 25.2373C20.5453 25.2373 22.2164 23.5662 22.2164 21.5122C22.2164 20.6962 21.9519 19.9412 21.5053 19.3269L24.1717 16.6605C25.2892 17.9671 25.9653 19.6621 25.9653 21.5122ZM18.0768 21.9266C18.3057 22.1554 18.6767 22.1554 18.9055 21.9266L20.6619 20.1702C20.9041 20.5604 21.0444 21.0202 21.0444 21.5123C21.0444 22.9202 19.899 24.0655 18.4911 24.0655C17.0832 24.0655 15.9379 22.9201 15.9379 21.5123C15.9379 20.1045 17.0832 18.9591 18.4911 18.9591C18.9832 18.9591 19.443 19.0994 19.8332 19.3415L18.0768 21.098C17.848 21.3268 17.848 21.6978 18.0768 21.9266ZM31.5026 5.19806C31.4981 5.12767 31.5242 5.05868 31.5741 5.00892L35.0177 1.56541L35.1707 4.00415L31.6487 7.52618L31.5026 5.19806ZM32.4773 8.35477L35.9994 4.83275L38.4381 4.98579L34.9945 8.42938C34.9448 8.47922 34.8752 8.50571 34.8054 8.50086L32.4773 8.35477Z" fill="white"/>
</g>
<defs>
<clipPath id="clip0_2_106">
<rect width="40" height="40" fill="white" transform="translate(0.00366211)"/>
</clipPath>
</defs>
</svg>
