<svg width="40" height="40" viewBox="0 0 40 40" fill="none" xmlns="http://www.w3.org/2000/svg">
<g clip-path="url(#clip0_2_81)">
<path d="M34.2836 5.32129C33.7606 5.32129 33.3366 5.74527 33.3366 6.26832C33.3366 6.79137 33.7606 7.21535 34.2836 7.21535C34.8067 7.21535 35.2307 6.79137 35.2307 6.26832C35.2307 5.74527 34.8067 5.32129 34.2836 5.32129Z" fill="white"/>
<path d="M31.048 7.21535C31.5711 7.21535 31.9951 6.79135 31.9951 6.26832C31.9951 5.74529 31.5711 5.32129 31.048 5.32129C30.525 5.32129 30.101 5.74529 30.101 6.26832C30.101 6.79135 30.525 7.21535 31.048 7.21535Z" fill="white"/>
<path d="M27.8125 7.21535C28.3355 7.21535 28.7595 6.79135 28.7595 6.26832C28.7595 5.74529 28.3355 5.32129 27.8125 5.32129C27.2895 5.32129 26.8655 5.74529 26.8655 6.26832C26.8655 6.79135 27.2895 7.21535 27.8125 7.21535Z" fill="white"/>
<path d="M39.9995 4.61107C39.9995 3.41771 39.0285 2.44678 37.8352 2.44678H2.16375C0.970388 2.4467 -0.000549316 3.41764 -0.000549316 4.61107V30.2862C-0.000549316 30.6098 0.261716 30.8722 0.585388 30.8722C0.90906 30.8722 1.17133 30.6098 1.17133 30.2862V10.0901H38.8276V13.1878C38.8276 13.5114 39.0898 13.7737 39.4135 13.7737C39.7372 13.7737 39.9995 13.5114 39.9995 13.1878V4.61107ZM1.17133 8.91818V4.61107C1.17133 4.06389 1.61648 3.61865 2.16375 3.61865H37.8352C38.3824 3.61865 38.8276 4.06389 38.8276 4.61107V8.91826H1.17133V8.91818Z" fill="white"/>
<path d="M39.4135 15.3362C39.0898 15.3362 38.8276 15.5985 38.8276 15.9221V35.3893C38.8276 35.9364 38.3825 36.3815 37.8354 36.3815H2.16351C1.6164 36.3815 1.17133 35.9364 1.17133 35.3893V33.0205C1.17133 32.697 0.90906 32.4346 0.585388 32.4346C0.261716 32.4346 -0.000549316 32.697 -0.000549316 33.0205V35.3893C-0.000549316 36.5826 0.970232 37.5534 2.16351 37.5534H37.8354C39.0287 37.5534 39.9995 36.5826 39.9995 35.3893V15.9221C39.9995 15.5985 39.7372 15.3362 39.4135 15.3362Z" fill="white"/>
<path d="M20.4972 22.6504H13.2917C12.9681 22.6504 12.7058 22.9127 12.7058 23.2363V34.4426C12.7058 34.7661 12.9681 35.0285 13.2917 35.0285H33.4949C33.8185 35.0285 34.0808 34.7661 34.0808 34.4426V27.5678C36.0854 27.2822 37.632 25.5551 37.632 23.4728C37.632 21.1915 35.776 19.3354 33.4947 19.3354C31.495 19.3354 29.8222 20.7617 29.4397 22.6503H23.2316C22.9079 22.6503 22.6457 22.9126 22.6457 23.2362C22.6457 23.5598 22.9079 23.8222 23.2316 23.8222H29.3732C29.535 25.7457 31.0175 27.2984 32.9089 27.5678V33.8565H13.8777V23.8222H20.4972C20.8209 23.8222 21.0832 23.5598 21.0832 23.2362C21.0832 22.9126 20.8209 22.6504 20.4972 22.6504ZM30.5293 23.4729C30.5293 21.8377 31.8596 20.5074 33.4947 20.5074C35.1299 20.5074 36.4601 21.8377 36.4601 23.4729C36.4601 25.1065 35.1324 26.4356 33.4993 26.4382C33.4978 26.4382 33.4964 26.4379 33.4949 26.4379C33.4933 26.4379 33.4918 26.4382 33.4903 26.4382C31.8572 26.4357 30.5293 25.1065 30.5293 23.4729Z" fill="white"/>
<path d="M18.8331 25.8495C18.7216 25.5784 18.4602 25.4032 18.167 25.4032C18.1668 25.4032 18.1666 25.4032 18.1664 25.4032C17.873 25.4034 17.6115 25.579 17.5004 25.8506C17.4986 25.8551 17.4967 25.8596 17.4951 25.8641L15.2691 31.7086C15.1539 32.011 15.3058 32.3495 15.6082 32.4647C15.6768 32.4909 15.7473 32.5032 15.8166 32.5032C16.0527 32.5032 16.2752 32.3594 16.3643 32.1256L16.7749 31.0474H19.5426L19.9488 32.124C20.063 32.4267 20.4012 32.5797 20.7039 32.4653C21.0066 32.351 21.1594 32.013 21.0451 31.7102L18.8394 25.8655C18.8374 25.8601 18.8353 25.8548 18.8331 25.8495ZM17.2212 29.8755L18.165 27.3974L19.1002 29.8755H17.2212Z" fill="white"/>
<path d="M29.8527 31.3221C29.518 31.3221 29.197 31.1885 28.9941 30.9646C28.7769 30.7248 28.4063 30.7066 28.1665 30.9239C27.9267 31.1411 27.9084 31.5117 28.1258 31.7515C28.5534 32.2234 29.1827 32.4939 29.8527 32.4939C30.6939 32.4939 31.401 31.9527 31.5341 31.2069C31.6352 30.6409 31.3845 29.9039 30.3777 29.5325C29.9436 29.3724 29.538 29.1985 29.3917 29.1346C29.3536 29.0971 29.3503 29.0501 29.3553 29.0148C29.3681 28.9254 29.4445 28.8535 29.5647 28.8172C30.0217 28.6796 30.458 29.0189 30.4734 29.0311C30.7212 29.2357 31.088 29.2027 31.2951 28.9563C31.5033 28.7086 31.4713 28.3389 31.2236 28.1307C30.8862 27.8472 30.0859 27.4363 29.2267 27.6951C28.6684 27.8632 28.2734 28.3052 28.1954 28.8482C28.1218 29.3608 28.3441 29.8539 28.7755 30.1353C28.8015 30.1521 28.8287 30.1669 28.8569 30.1795C28.8784 30.1892 29.393 30.4182 29.9721 30.6318C30.1873 30.7112 30.4075 30.8498 30.3806 31.0008C30.3574 31.1304 30.1737 31.3221 29.8527 31.3221Z" fill="white"/>
<path d="M25.6049 32.1081C25.6868 32.3331 25.9018 32.4939 26.155 32.4939C26.4787 32.4939 26.741 32.2316 26.741 31.908V26.3353C26.741 26.0117 26.4787 25.7494 26.155 25.7494C25.8314 25.7494 25.5691 26.0117 25.5691 26.3353V27.9477C25.1956 27.7177 24.7563 27.5849 24.2864 27.5849C22.933 27.5849 21.8319 28.686 21.8319 30.0393C21.8319 31.3927 22.933 32.4938 24.2864 32.4938C24.7715 32.4939 25.2238 32.3519 25.6049 32.1081ZM23.0038 30.0394C23.0038 29.3321 23.5792 28.7568 24.2864 28.7568C24.9937 28.7568 25.5691 29.3322 25.5691 30.0394C25.5691 30.7466 24.9937 31.322 24.2864 31.322C23.5792 31.322 23.0038 30.7466 23.0038 30.0394Z" fill="white"/>
<path d="M33.4946 24.3013L33.8057 24.6124C33.9201 24.7268 34.0701 24.784 34.2201 24.784C34.37 24.784 34.52 24.7268 34.6344 24.6124C34.8633 24.3835 34.8633 24.0126 34.6344 23.7838L34.3233 23.4726L34.6344 23.1614C34.8633 22.9326 34.8633 22.5616 34.6344 22.3328C34.4056 22.1039 34.0346 22.104 33.8058 22.3328L33.4947 22.6438L33.1836 22.3328C32.9547 22.1039 32.5837 22.1039 32.3549 22.3328C32.1261 22.5616 32.1261 22.9326 32.3549 23.1613L32.6661 23.4725L32.355 23.7836C32.1261 24.0124 32.1261 24.3834 32.3549 24.6122C32.4694 24.7267 32.6193 24.7838 32.7693 24.7838C32.9192 24.7838 33.0692 24.7267 33.1836 24.6122L33.4946 24.3013Z" fill="white"/>
<path d="M31.7583 11.4434H8.24036C7.91668 11.4434 7.65442 11.7057 7.65442 12.0293V14.5547C7.65442 14.8783 7.91668 15.1406 8.24036 15.1406H31.7582C32.0819 15.1406 32.3442 14.8783 32.3442 14.5547V12.0293C32.3443 11.7057 32.0819 11.4434 31.7583 11.4434ZM31.1724 13.9688H8.82629V12.6152H31.1723V13.9688H31.1724Z" fill="white"/>
<path d="M8.63501 17.599C8.31134 17.599 8.04907 17.8613 8.04907 18.1849C8.04907 18.5085 8.31134 18.7709 8.63501 18.7709H23.6297C23.9534 18.7709 24.2156 18.5085 24.2156 18.1849C24.2156 17.8613 23.9534 17.599 23.6297 17.599H8.63501Z" fill="white"/>
</g>
<defs>
<clipPath id="clip0_2_81">
<rect width="40" height="40" fill="white" transform="translate(-0.000549316)"/>
</clipPath>
</defs>
</svg>
