<svg width="28" height="28" viewBox="0 0 28 28" fill="none" xmlns="http://www.w3.org/2000/svg">
<g clip-path="url(#clip0_56_487)">
<path d="M8.25197 10.5516C6.98416 10.5516 5.95312 9.52052 5.95312 8.25271C5.95312 6.98489 6.98416 5.95386 8.25197 5.95386C9.51979 5.95386 10.5508 6.98489 10.5508 8.25271C10.5508 9.52052 9.51979 10.5516 8.25197 10.5516ZM8.25197 7.10328C7.61864 7.10328 7.10255 7.61937 7.10255 8.25271C7.10255 8.88604 7.61864 9.40213 8.25197 9.40213C8.88531 9.40213 9.4014 8.88604 9.4014 8.25271C9.4014 7.61937 8.88531 7.10328 8.25197 7.10328Z" fill="white"/>
<path d="M10.5518 23.1954C9.28396 23.1954 8.25293 22.1643 8.25293 20.8965C8.25293 19.6287 9.28396 18.5977 10.5518 18.5977C11.8196 18.5977 12.8506 19.6287 12.8506 20.8965C12.8506 22.1643 11.8196 23.1954 10.5518 23.1954ZM10.5518 19.7471C9.91845 19.7471 9.40235 20.2632 9.40235 20.8965C9.40235 21.5298 9.91845 22.0459 10.5518 22.0459C11.1851 22.0459 11.7012 21.5298 11.7012 20.8965C11.7012 20.2632 11.1851 19.7471 10.5518 19.7471Z" fill="white"/>
<path d="M20.8965 17.4482C19.6287 17.4482 18.5977 16.4171 18.5977 15.1493C18.5977 13.8815 19.6287 12.8505 20.8965 12.8505C22.1643 12.8505 23.1954 13.8815 23.1954 15.1493C23.1954 16.4171 22.1643 17.4482 20.8965 17.4482ZM20.8965 13.9999C20.2632 13.9999 19.7471 14.516 19.7471 15.1493C19.7471 15.7826 20.2632 16.2987 20.8965 16.2987C21.5298 16.2987 22.0459 15.7826 22.0459 15.1493C22.0459 14.516 21.5298 13.9999 20.8965 13.9999Z" fill="white"/>
<path d="M13.9996 27.793C6.3939 27.793 0.206543 21.6056 0.206543 13.9999C0.206543 6.39414 6.3939 0.206787 13.9996 0.206787C14.7767 0.206787 15.564 0.275753 16.3399 0.410235C16.5203 0.44127 16.6755 0.558511 16.7571 0.722879C16.8376 0.887247 16.8353 1.0815 16.7502 1.24357C16.4502 1.81253 16.2985 2.43092 16.2985 3.08035C16.2985 5.29874 18.1031 7.10334 20.3215 7.10334C20.6364 7.10334 20.9652 7.05391 21.3272 6.95276C21.4996 6.90564 21.6859 6.93897 21.8295 7.04817C21.9732 7.15621 22.0571 7.32633 22.0571 7.50564C22.0571 7.52403 22.0502 7.62863 22.0491 7.64817C22.0456 9.26196 23.3353 10.5516 24.9192 10.5516C25.4767 10.5516 26.0077 10.3976 26.4548 10.1045C26.61 10.0033 26.8019 9.98265 26.9755 10.0493C27.1479 10.116 27.2778 10.2597 27.3249 10.4378C27.6353 11.6056 27.7927 12.8033 27.7927 13.9999C27.7927 21.6056 21.6054 27.793 13.9996 27.793ZM13.9996 1.35621C7.02838 1.35621 1.35597 7.02863 1.35597 13.9999C1.35597 20.9712 7.02838 26.6436 13.9996 26.6436C20.9709 26.6436 26.6433 20.9712 26.6433 13.9999C26.6433 13.1401 26.5548 12.2781 26.379 11.4298C25.9203 11.6079 25.4261 11.701 24.9192 11.701C22.8813 11.701 21.1916 10.1769 20.9307 8.20909C20.7238 8.23897 20.5215 8.25276 20.3215 8.25276C17.4698 8.25276 15.1491 5.93207 15.1491 3.08035C15.1491 2.51138 15.2399 1.96196 15.418 1.43782C14.9445 1.3838 14.4698 1.35621 13.9996 1.35621Z" fill="white"/>
<path d="M5.37775 15.1493C5.23062 15.1493 5.08349 15.093 4.97085 14.9815L3.82142 13.8321C3.59729 13.6079 3.59729 13.2436 3.82142 13.0194C4.04556 12.7953 4.40993 12.7953 4.63407 13.0194L5.78349 14.1688C6.00763 14.393 6.00763 14.7574 5.78349 14.9815C5.672 15.093 5.52487 15.1493 5.37775 15.1493Z" fill="white"/>
<path d="M15.7225 17.4481C15.5753 17.4481 15.4282 17.3918 15.3156 17.2803L14.1662 16.1309C13.942 15.9068 13.942 15.5424 14.1662 15.3182C14.3903 15.0941 14.7547 15.0941 14.9788 15.3182L16.1282 16.4677C16.3524 16.6918 16.3524 17.0562 16.1282 17.2803C16.0167 17.3918 15.8696 17.4481 15.7225 17.4481Z" fill="white"/>
<path d="M16.8743 22.0458C16.7272 22.0458 16.5801 21.9895 16.4674 21.878C16.2433 21.6538 16.2433 21.2895 16.4674 21.0653L17.6168 19.9159C17.841 19.6918 18.2053 19.6918 18.4295 19.9159C18.6536 20.14 18.6536 20.5044 18.4295 20.7285L17.2801 21.878C17.1686 21.9895 17.0214 22.0458 16.8743 22.0458Z" fill="white"/>
<path d="M14.573 11.7011C14.4259 11.7011 14.2788 11.6447 14.1662 11.5332C13.942 11.3091 13.942 10.9447 14.1662 10.7206L15.3156 9.57118C15.5397 9.34704 15.9041 9.34704 16.1282 9.57118C16.3524 9.79532 16.3524 10.1597 16.1282 10.3838L14.9788 11.5332C14.8673 11.6447 14.7202 11.7011 14.573 11.7011Z" fill="white"/>
<path d="M9.97783 15.1493C9.83071 15.1493 9.68358 15.093 9.57094 14.9815C9.3468 14.7574 9.3468 14.393 9.57094 14.1688L10.7204 13.0194C10.9445 12.7953 11.3089 12.7953 11.533 13.0194C11.7571 13.2436 11.7571 13.6079 11.533 13.8321L10.3836 14.9815C10.2721 15.093 10.125 15.1493 9.97783 15.1493Z" fill="white"/>
</g>
<defs>
<clipPath id="clip0_56_487">
<rect width="27.5862" height="27.5862" fill="white" transform="translate(0.206543 0.206787)"/>
</clipPath>
</defs>
</svg>
