<svg width="573" height="402" fill="none" xmlns="http://www.w3.org/2000/svg"><g clip-path="url(#clip0_22_44)"><path d="M248.241 380.012c0 12.062-37.713 21.839-84.234 21.839-46.521 0-84.234-9.777-84.234-21.839s37.713-21.839 84.234-21.839c46.521 0 84.234 9.777 84.234 21.839" fill="#fff"/><path d="M248.241 380.012c0 12.062-37.713 21.839-84.234 21.839-46.521 0-84.234-9.777-84.234-21.839s37.713-21.839 84.234-21.839c46.521 0 84.234 9.777 84.234 21.839v0z" stroke="#1B1918" stroke-width="1.279" stroke-miterlimit="10" stroke-linecap="round" stroke-linejoin="round"/><path d="M66.765 346.335h402.329c.691-.995 7.947-11.841 3.423-23.698-4.007-10.504-15.553-17.313-28.132-15.965 3.33-22.546-1.967-45.104-16.346-55.121-21.245-14.8-65.195-4.231-88.576 38.014 2.281-27.75-15.967-49.418-39.916-60.062-32.06-11.405-49.119 13.763-56.643 20.527-9.301-10.231-24.107-23.019-45.239-30.031-24.391-8.093-67.542-11.92-84.014 12.165-5.846 8.548-6.835 18.423-6.463 26.23-23.118-7.458-48.167 2.849-58.924 23.569-11.522 22.194-3.716 50.687 18.501 64.372z" fill="#fff"/><path d="M305.503 249.017h-27.371v-57.022h27.371v57.022z" fill="#fff"/><path d="M305.503 249.017h-27.371v-57.022h27.371v57.022z" stroke="#1B1918" stroke-width="1.279" stroke-miterlimit="10" stroke-linecap="round" stroke-linejoin="round"/><path d="M309.151 243.441h-34.669l-100.091 45.364h29.95l87.476-29.651 87.475 29.651h29.951l-100.092-45.364z" fill="#1D1316"/><path d="M309.151 243.441h-34.669l-100.091 45.364h29.95l87.476-29.651 87.475 29.651h29.951l-100.092-45.364z" stroke="#1B1918" stroke-width=".639" stroke-miterlimit="10" stroke-linecap="round" stroke-linejoin="round"/><path d="M440.077 288.805H116.186v51.611h323.891v-51.611" fill="#fff"/><path d="M440.077 288.805H116.186v51.611h323.891v-51.611zm-64.284 6.255v39.596" stroke="#1B1918" stroke-width="1.279" stroke-miterlimit="10" stroke-linecap="round" stroke-linejoin="round"/><path d="M116.186 340.416v5.919h323.891v-5.919H116.186z" fill="#1D1316"/><path d="M116.186 340.416v5.919h323.891v-5.919H116.186z" stroke="#1B1918" stroke-width=".639" stroke-miterlimit="10" stroke-linecap="round" stroke-linejoin="round"/><path d="M221.362 295.06v39.596m-54.716-39.596v39.596" stroke="#1B1918" stroke-width="1.279" stroke-miterlimit="10" stroke-linecap="round" stroke-linejoin="round"/><path d="M48.276 346.335h440.982" stroke="#1B1918" stroke-width="1.918" stroke-miterlimit="10" stroke-linecap="round" stroke-linejoin="round"/><path d="M435.24 194.276H144.848c-6.732 0-12.189-5.457-12.189-12.189V12.339c0-6.734 5.457-12.19 12.189-12.19H435.24c6.73 0 12.186 5.456 12.186 12.19v169.748c0 6.732-5.456 12.189-12.186 12.189" fill="#fff"/><path d="M435.24 194.276H144.848c-6.732 0-12.189-5.457-12.189-12.189V12.339c0-6.734 5.457-12.19 12.189-12.19H435.24c6.73 0 12.186 5.456 12.186 12.19v169.748c0 6.732-5.456 12.189-12.186 12.189v0z" stroke="#1B1918" stroke-width="1.279" stroke-miterlimit="10" stroke-linecap="round" stroke-linejoin="round"/><path d="M438.811 22.215V172.21c0 7.7-6.243 13.939-13.94 13.939H373.93V8.278h50.941c7.697 0 13.94 6.24 13.94 13.937z" fill="#fff"/><path d="M438.811 22.215V172.21c0 7.7-6.243 13.939-13.94 13.939H373.93V8.278h50.941c7.697 0 13.94 6.24 13.94 13.937z" stroke="#1B1918" stroke-width="1.279" stroke-miterlimit="10" stroke-linecap="round" stroke-linejoin="round"/><path d="M373.931 44.545v81.814H141.277V44.545h232.654z" fill="#fff"/><path d="M373.931 44.545v81.814H141.277V44.545h232.654z" stroke="#1B1918" stroke-width="1.279" stroke-miterlimit="10" stroke-linecap="round" stroke-linejoin="round"/><path d="M366.431 120.29H149.008V49.737h217.423v70.553z" stroke="#1B1918" stroke-width="1.279" stroke-miterlimit="10" stroke-linecap="round" stroke-linejoin="round" stroke-dasharray="7.67 7.67"/><path d="M373.931 8.279v36.266H141.277v-22.33c0-7.697 6.239-13.936 13.937-13.936h218.717" fill="#fff"/><path d="M373.931 8.279v36.266H141.277v-22.33c0-7.697 6.239-13.936 13.937-13.936h218.717z" stroke="#1B1918" stroke-width="1.279" stroke-miterlimit="10" stroke-linecap="round" stroke-linejoin="round"/><path d="M373.931 126.359v59.789H155.214c-7.698 0-13.937-6.239-13.937-13.939v-45.85h232.654z" fill="#fff"/><path d="M373.931 126.359v59.789H155.214c-7.698 0-13.937-6.239-13.937-13.939v-45.85h232.654z" stroke="#1B1918" stroke-width="1.279" stroke-miterlimit="10" stroke-linecap="round" stroke-linejoin="round"/><path d="M419.043 71.11c0-6.439-5.22-11.659-11.658-11.659-6.439 0-11.658 5.22-11.658 11.658s5.219 11.658 11.658 11.658c6.438 0 11.658-5.22 11.658-11.658z" fill="#fff"/><path d="M419.043 71.11c0-6.439-5.22-11.659-11.658-11.659-6.439 0-11.658 5.22-11.658 11.658s5.219 11.658 11.658 11.658c6.438 0 11.658-5.22 11.658-11.658z" stroke="#1B1918" stroke-width="1.279" stroke-miterlimit="10" stroke-linecap="round" stroke-linejoin="round"/><path d="M338.181 89.208c0-6.438-5.219-11.657-11.658-11.657-6.438 0-11.658 5.22-11.658 11.657 0 6.438 5.22 11.657 11.658 11.657 6.439 0 11.658-5.22 11.658-11.657z" fill="#fff"/><path d="M338.181 89.208c0-6.438-5.219-11.657-11.658-11.657-6.438 0-11.658 5.22-11.658 11.657 0 6.438 5.22 11.657 11.658 11.657 6.439 0 11.658-5.22 11.658-11.657z" stroke="#1B1918" stroke-width="1.279" stroke-miterlimit="10" stroke-linecap="round" stroke-linejoin="round"/><path d="M293.15 27.257c0-6.438-5.219-11.657-11.658-11.657-6.439 0-11.658 5.22-11.658 11.657 0 6.439 5.219 11.658 11.658 11.658 6.439 0 11.658-5.22 11.658-11.658z" fill="#fff"/><path d="M293.15 27.257c0-6.438-5.219-11.657-11.658-11.657-6.439 0-11.658 5.22-11.658 11.657 0 6.439 5.219 11.658 11.658 11.658 6.439 0 11.658-5.22 11.658-11.658z" stroke="#1B1918" stroke-width="1.279" stroke-miterlimit="10" stroke-linecap="round" stroke-linejoin="round"/><path d="M325.031 157.885c0-6.439-5.219-11.658-11.658-11.658-6.439 0-11.658 5.219-11.658 11.658 0 6.438 5.219 11.657 11.658 11.657 6.439 0 11.658-5.219 11.658-11.657" fill="#fff"/><path d="M325.031 157.885c0-6.439-5.219-11.658-11.658-11.658-6.439 0-11.658 5.219-11.658 11.658 0 6.438 5.219 11.657 11.658 11.657 6.439 0 11.658-5.219 11.658-11.657v0z" stroke="#1B1918" stroke-width="1.279" stroke-miterlimit="10" stroke-linecap="round" stroke-linejoin="round"/><path d="M278.902 31.383v-.672l.861-.836c2.072-1.974 3.009-3.022 3.021-4.247 0-.823-.399-1.585-1.61-1.585-.736 0-1.348.376-1.723.687l-.349-.774a3.571 3.571 0 012.296-.824c1.748 0 2.484 1.2 2.484 2.36 0 1.498-1.085 2.707-2.795 4.358l-.649.597v.025h3.644v.91h-5.18zm45.387 60.62a3.66 3.66 0 001.797.512c1.411 0 1.846-.898 1.834-1.572-.013-1.138-1.036-1.623-2.096-1.623h-.612v-.824h.612c.799 0 1.81-.413 1.81-1.374 0-.65-.411-1.221-1.424-1.221-.647 0-1.272.286-1.623.534l-.286-.799c.426-.31 1.247-.621 2.123-.621 1.595 0 2.32.948 2.32 1.933 0 .837-.498 1.548-1.496 1.909v.025c.998.202 1.809.948 1.809 2.086 0 1.298-1.01 2.433-2.959 2.433-.911 0-1.71-.287-2.108-.549l.299-.849zm83.387-23.928h-.025l-1.408.762-.215-.837 1.772-.948h.939v8.114h-1.063v-7.09m-93.504 90.795v-2.709c0-.424.013-.849.038-1.273h-.038c-.248.474-.45.824-.674 1.198l-1.984 2.759v.025h2.658zm0 3.07v-2.209h-3.77v-.724l3.621-5.18h1.185v5.043h1.134v.861h-1.134v2.209h-1.036z" fill="#100F0D"/><path d="M366.431 179.105H149.008v-45.23h217.423v45.23z" stroke="#1B1918" stroke-width="1.279" stroke-miterlimit="10" stroke-linecap="round" stroke-linejoin="round" stroke-dasharray="7.67 7.67"/><path d="M215.631 85.182s-2.478-1.013 1.943-3.208c4.42-2.195 9.377 5.238 9.208 7.856-.169 2.618-7.688 7.011-7.688 7.011l-3.463-11.659z" fill="#73CFF5"/><path d="M215.631 85.182s-2.478-1.013 1.943-3.208c4.42-2.195 9.377 5.238 9.208 7.856-.169 2.618-7.688 7.011-7.688 7.011l-3.463-11.659z" stroke="#1B1918" stroke-width="1.279" stroke-miterlimit="10" stroke-linecap="round" stroke-linejoin="round"/><path d="M229.219 70.347s-4.14-3.63-6.505 2.03c-2.365 5.658-5.597 12.734-5.597 12.734s3.673 5.77 6.038 5.263c11.069-4.921 6.064-20.026 6.064-20.026" fill="#fff"/><path d="M229.219 70.347s-4.14-3.63-6.505 2.03c-2.365 5.658-5.597 12.734-5.597 12.734s3.673 5.77 6.038 5.263c11.069-4.921 6.064-20.026 6.064-20.026v0z" stroke="#1B1918" stroke-width="1.279" stroke-miterlimit="10" stroke-linecap="round" stroke-linejoin="round"/><path d="M230.494 47.962l58.957 5.07-7.603 43.758-56.939-8.278 5.585-40.55" fill="#fff"/><path d="M230.494 47.962l58.957 5.07-7.603 43.758-56.939-8.278 5.585-40.55z" stroke="#1B1918" stroke-width="1.279" stroke-miterlimit="10" stroke-linecap="round" stroke-linejoin="round"/><path d="M259.859 70.052l15.104-8.362 1.183 1.647-16.684 8.997s-.514-1.057.397-2.282z" fill="#fff"/><path d="M259.859 70.052l15.104-8.362 1.183 1.647-16.684 8.997s-.514-1.057.397-2.282z" stroke="#1B1918" stroke-width="1.279" stroke-miterlimit="10" stroke-linecap="round" stroke-linejoin="round"/><path d="M176.377 79.22s-38.776 37.76-30.032 56.26c5.575 10.518 22.429-.633 22.429-.633l7.603-55.627z" fill="#73CFF5"/><path d="M176.377 79.22s-38.776 37.76-30.032 56.26c5.575 10.518 22.429-.633 22.429-.633l7.603-55.627z" fill="red" stroke="#1B1918" stroke-width="1.279" stroke-miterlimit="10" stroke-linecap="round" stroke-linejoin="round"/><path d="M192.336 366.305l.557-2.738s-13.939-1.735-15.713-.868c0 0-.709 1.471-1.569 3.656 5.072 1.71 11.232 1.144 16.725-.05z" fill="#1D1316"/><path d="M192.336 366.305l.557-2.738s-13.939-1.735-15.713-.868c0 0-.709 1.471-1.569 3.656 5.072 1.71 11.232 1.144 16.725-.05z" stroke="#1B1918" stroke-width=".639" stroke-miterlimit="10" stroke-linecap="round" stroke-linejoin="round"/><path d="M203.874 369.144c-5.153-.423-11.996-.594-11.996-.594l.457-2.245c-5.493 1.194-11.653 1.76-16.724.05-2.24 5.692-5.508 16.231.047 18.245 7.688 2.789 27.118-3.124 33.37-7.6 2.027-1.943 0-7.437-5.154-7.856" fill="#fff"/><path d="M203.874 369.144c-5.153-.423-11.996-.594-11.996-.594l.457-2.245c-5.493 1.194-11.653 1.76-16.724.05-2.24 5.692-5.508 16.231.047 18.245 7.688 2.789 27.118-3.124 33.37-7.6 2.027-1.943 0-7.437-5.154-7.856v0z" stroke="#1B1918" stroke-width="1.279" stroke-miterlimit="10" stroke-linecap="round" stroke-linejoin="round"/><path d="M130.341 363.952l.947-4.259s-11.597-4.066-13.553-3.792c0 0-1.876 2.154-3.853 5.104 4.717 3.755 10.668 4.113 16.459 2.947z" fill="#1D1316"/><path d="M130.341 363.952l.947-4.259s-11.597-4.066-13.553-3.792c0 0-1.876 2.154-3.853 5.104 4.717 3.755 10.668 4.113 16.459 2.947z" stroke="#1B1918" stroke-width=".639" stroke-miterlimit="10" stroke-linecap="round" stroke-linejoin="round"/><path d="M141.089 370.347c-4.765-2.008-11.213-4.303-11.213-4.303l.465-2.092c-5.791 1.166-11.742.808-16.459-2.947-3.237 4.831-6.747 11.795-2.752 14.928 6.435 5.046 25.069 5.789 32.405 3.485 2.532-1.212 2.318-7.063-2.446-9.071z" fill="#fff"/><path d="M141.089 370.347c-4.765-2.008-11.213-4.303-11.213-4.303l.465-2.092c-5.791 1.166-11.742.808-16.459-2.947-3.237 4.831-6.747 11.795-2.752 14.928 6.435 5.046 25.069 5.789 32.405 3.485 2.532-1.212 2.318-7.063-2.446-9.071z" stroke="#1B1918" stroke-width="1.279" stroke-miterlimit="10" stroke-linecap="round" stroke-linejoin="round"/><path d="M226.43 167.159s-53.222-4.308-62.726 2.661c-9.503 6.969-25.723 43.97-16.853 96.684-17.487 29.651-31.426 90.982-31.426 90.982s11.235 6.503 15.966 4.983c6.843-10.137 39.03-65.554 52.715-123.589 11.151-35.987 18.501-52.46 18.501-52.46" fill="#fff"/><path d="M226.43 167.159s-53.222-4.308-62.726 2.661c-9.503 6.969-25.723 43.97-16.853 96.684-17.487 29.651-31.426 90.982-31.426 90.982s11.235 6.503 15.966 4.983c6.843-10.137 39.03-65.554 52.715-123.589 11.151-35.987 18.501-52.46 18.501-52.46" stroke="#1B1918" stroke-width="1.279" stroke-miterlimit="10" stroke-linecap="round" stroke-linejoin="round"/><path d="M194.37 163.231c.507 0 38.416 3.153 39.293 5.124.877 1.972 1.891 55.066-4.952 88.265s-32.525 108.638-32.525 108.638-19.092 2.195-21.795-1.691c.675-10.983 13.348-81.942 19.768-92.417-2.197-11.32-17.156-46.238-10.309-71.575" fill="#fff"/><path d="M194.37 163.231c.507 0 38.416 3.153 39.293 5.124.877 1.972 1.891 55.066-4.952 88.265s-32.525 108.638-32.525 108.638-19.092 2.195-21.795-1.691c.675-10.983 13.348-81.942 19.768-92.417-2.197-11.32-17.156-46.238-10.309-71.575" stroke="#1B1918" stroke-width="1.279" stroke-miterlimit="10" stroke-linecap="round" stroke-linejoin="round"/><path d="M163.606 172.593s5.8 3.44 20.319 3.68c14.519.239 33.117-3.52 39.597-3.68 6.479-.16 10.438-1.608 10.438-1.608v-5.143l-70.354 2.271-1.346 2.95 1.346 1.53z" fill="#1D1316"/><path d="M163.606 172.593s5.8 3.44 20.319 3.68c14.519.239 33.117-3.52 39.597-3.68 6.479-.16 10.438-1.608 10.438-1.608v-5.143l-70.354 2.271-1.346 2.95 1.346 1.53z" stroke="#1B1918" stroke-width=".639" stroke-miterlimit="10" stroke-linecap="round" stroke-linejoin="round"/><path d="M187.021 74.784s-10.77-3.04-21.542 16.221c-10.77 19.259-7.603 74.507-1.774 78.815 5.829 4.308 28.766 5.322 37.255 3.675 8.491-1.647 24.711-1.901 29.906-3.041 5.196-1.141 6.59-13.432 5.956-24.583-.634-11.151-.551-53.89-27.371-67.54-13.686-6.336-22.43-3.547-22.43-3.547" fill="red"/><path d="M187.021 74.784s-10.77-3.04-21.542 16.221c-10.77 19.259-7.603 74.507-1.774 78.815 5.829 4.308 28.766 5.322 37.255 3.675 8.491-1.647 24.711-1.901 29.906-3.041 5.196-1.141 6.59-13.432 5.956-24.583-.634-11.151-.551-53.89-27.371-67.54-13.686-6.336-22.43-3.547-22.43-3.547v0z" stroke="#1B1918" stroke-width="1.279" stroke-miterlimit="10" stroke-linecap="round" stroke-linejoin="round"/><path d="M195.384 99.113s7.306 49.5 44.858 39.535c32.313-8.574 24.541-57.233 24.541-57.233s-.084-.846-2.45-.846c-2.365 0-8.786-2.45-8.786 1.269 0 3.718-1.684 25.286-11.32 27.531-9.636 2.246-14.087-11.43-15.692-13.879" fill="red"/><path d="M195.384 99.113s7.306 49.5 44.858 39.535c32.313-8.574 24.541-57.233 24.541-57.233s-.084-.846-2.45-.846c-2.365 0-8.786-2.45-8.786 1.269 0 3.718-1.684 25.286-11.32 27.531-9.636 2.246-14.087-11.43-15.692-13.879" stroke="#1B1918" stroke-width="1.279" stroke-miterlimit="10" stroke-linecap="round" stroke-linejoin="round"/><path d="M262.757 82.049s5.998-8.151 4.73-10.896c-1.267-2.748-7.349-5.618-8.87-5.916-1.52-.295-6.082 3.168-6.462 4.309-.38 1.14.422 4.899 1.098 5.788.676.886 2.07 5.447 2.07 5.913 0 .463 7.434.802 7.434.802" fill="#fff"/><path d="M262.757 82.049s5.998-8.151 4.73-10.896c-1.267-2.748-7.349-5.618-8.87-5.916-1.52-.295-6.082 3.168-6.462 4.309-.38 1.14.422 4.899 1.098 5.788.676.886 2.07 5.447 2.07 5.913 0 .463 7.434.802 7.434.802v0z" stroke="#1B1918" stroke-width="1.279" stroke-miterlimit="10" stroke-linecap="round" stroke-linejoin="round"/><path d="M258.785 69.334s-2.745 2.748-1.056 4.564c1.69 1.815-1.14 3.084-1.14 3.084" fill="#fff"/><path d="M258.785 69.334s-2.745 2.748-1.056 4.564c1.69 1.815-1.14 3.084-1.14 3.084" stroke="#1B1918" stroke-width="1.279" stroke-miterlimit="10" stroke-linecap="round" stroke-linejoin="round"/><path d="M252.4 72.971l-3.415 1.856-1.858 1.56h2.703l3.422-1.053-.852-2.363" fill="#fff"/><path d="M252.4 72.971l-3.415 1.856-1.858 1.56h2.703l3.422-1.053-.852-2.363z" stroke="#1B1918" stroke-width="1.279" stroke-miterlimit="10" stroke-linecap="round" stroke-linejoin="round"/><path d="M192.471 65.29s5.533.718 8.996-1.31c7.181-5.741-6.885-28.761-6.885-28.761s-24.245 12.416-24.245 12.671c0 .252 5.153 16.218 5.491 16.302.338.084 4.646 1.604 4.646 1.604s1.014 6.34-.253 10.645c2.45 3.043 13.432 4.14 19.346.422 1.689-1.18.549-2.207.549-2.207s-2.665-7.433-2.959-9.376" fill="#fff"/><path d="M192.471 65.29s5.533.718 8.996-1.31c7.181-5.741-6.885-28.761-6.885-28.761s-24.245 12.416-24.245 12.671c0 .252 5.153 16.218 5.491 16.302.338.084 4.646 1.604 4.646 1.604s1.014 6.34-.253 10.645c2.45 3.043 13.432 4.14 19.346.422 1.689-1.18.549-2.207.549-2.207s-2.665-7.433-2.959-9.376" stroke="#1B1918" stroke-width="1.279" stroke-miterlimit="10" stroke-linecap="round" stroke-linejoin="round"/><path d="M197.474 66.633s-4.519-.209-5.419-1.26c5.249.18 5.099.15 5.099.15l.32 1.11z" fill="#1D1316"/><path d="M197.474 66.633s-4.519-.209-5.419-1.26c5.249.18 5.099.15 5.099.15l.32 1.11z" stroke="#1B1918" stroke-width=".639" stroke-miterlimit="10" stroke-linecap="round" stroke-linejoin="round"/><path d="M184.191 51.605s-7.94-7.265-8.87.762c-.929 8.023 5.491 5.49 7.772 5.322 0 0 1.183 3.886 0 6.503-1.183 2.621-8.532 8.279-11.827 5.323-3.294-2.957-9.377-14.817-8.87-20.925.507-6.11 3.041-11.176 7.265-13.542 4.224-2.366 19.768-5.913 21.204-11.067.676-2.786 4.055-.843 5.66 2.704 1.605 3.548 4.478 4.816 1.859 7.433-2.619 2.621-13.263 6.252-14.53 6.59.253 5.914 3.886 10.981 3.294 11.152-.591.168-2.196 1.181-2.957-.255" fill="#1D1316"/><path d="M184.191 51.605s-7.94-7.265-8.87.762c-.929 8.023 5.491 5.49 7.772 5.322 0 0 1.183 3.886 0 6.503-1.183 2.621-8.532 8.279-11.827 5.323-3.294-2.957-9.377-14.817-8.87-20.925.507-6.11 3.041-11.176 7.265-13.542 4.224-2.366 19.768-5.913 21.204-11.067.676-2.786 4.055-.843 5.66 2.704 1.605 3.548 4.478 4.816 1.859 7.433-2.619 2.621-13.263 6.252-14.53 6.59.253 5.914 3.886 10.981 3.294 11.152-.591.168-2.196 1.181-2.957-.255v0z" stroke="#1B1918" stroke-width=".639" stroke-miterlimit="10" stroke-linecap="round" stroke-linejoin="round"/><path d="M224.909 74.681s4.144-.025 3.72 3.208c-.425 3.23-3.72 4.16-3.72 4.16" fill="#fff"/><path d="M224.909 74.681s4.144-.025 3.72 3.208c-.425 3.23-3.72 4.16-3.72 4.16" stroke="#1B1918" stroke-width="1.279" stroke-miterlimit="10" stroke-linecap="round" stroke-linejoin="round"/><path d="M62.954 180.82c0 .289.012.572.03.854a12.987 12.987 0 01-12.03-3.494c-5.075-5.076-5.075-13.304 0-18.379 5.075-5.075 13.304-5.075 18.38 0a12.964 12.964 0 013.803 9.445c-5.745.73-10.183 5.633-10.183 11.574" fill="#fff"/><path d="M62.954 180.82c0 .289.012.572.03.854a12.987 12.987 0 01-12.03-3.494c-5.075-5.076-5.075-13.304 0-18.379 5.075-5.075 13.304-5.075 18.38 0a12.964 12.964 0 013.803 9.445c-5.745.73-10.183 5.633-10.183 11.574v0z" stroke="#1B1918" stroke-width="1.279" stroke-miterlimit="10" stroke-linecap="round" stroke-linejoin="round"/><path d="M86.292 180.82c0 6.445-5.224 11.669-11.67 11.669-6.155 0-11.198-4.769-11.639-10.815a12.913 12.913 0 006.35-3.494 12.961 12.961 0 003.804-8.934 11.75 11.75 0 011.486-.095c6.445 0 11.67 5.224 11.67 11.669z" fill="#1D1316"/><path d="M86.292 180.82c0 6.445-5.224 11.669-11.67 11.669-6.155 0-11.198-4.769-11.639-10.815a12.913 12.913 0 006.35-3.494 12.961 12.961 0 003.804-8.934 11.75 11.75 0 011.486-.095c6.445 0 11.67 5.224 11.67 11.669z" stroke="#1B1918" stroke-width=".639" stroke-miterlimit="10" stroke-linecap="round" stroke-linejoin="round"/><path d="M420.59 125.336c0 7.052-5.717 12.77-12.771 12.77-7.051 0-12.771-5.718-12.771-12.77 0-7.053 5.72-12.77 12.771-12.77 7.054 0 12.771 5.717 12.771 12.77z" fill="#fff"/><path d="M420.59 125.336c0 7.052-5.717 12.77-12.771 12.77-7.051 0-12.771-5.718-12.771-12.77 0-7.053 5.72-12.77 12.771-12.77 7.054 0 12.771 5.717 12.771 12.77z" stroke="#1B1918" stroke-width="1.279" stroke-miterlimit="10" stroke-linecap="round" stroke-linejoin="round"/><path d="M414.68 131.034h-13.719s-.127-1.588.697-1.97c.827-.381 1.461-8.191 3.814-9.144l.936-.38a1.523 1.523 0 112.823 0l.939.38c2.35.953 2.984 8.763 3.811 9.144.824.382.699 1.97.699 1.97" fill="#fff"/><path d="M414.68 131.034h-13.719s-.127-1.588.697-1.97c.827-.381 1.461-8.191 3.814-9.144l.936-.38a1.523 1.523 0 112.823 0l.939.38c2.35.953 2.984 8.763 3.811 9.144.824.382.699 1.97.699 1.97v0z" stroke="#1B1918" stroke-width="1.279" stroke-miterlimit="10" stroke-linecap="round" stroke-linejoin="round"/><path d="M410.014 131.034a2.195 2.195 0 01-4.39 0h4.39z" fill="#1B1918"/><path d="M410.014 131.034a2.195 2.195 0 01-4.39 0h4.39z" stroke="#1B1918" stroke-width="1.279" stroke-miterlimit="10" stroke-linecap="round" stroke-linejoin="round"/><path d="M385.51 320.259h-2.241v-10.56h2.241v10.56z" fill="#fff"/><path d="M385.51 320.259h-2.241v-10.56h2.241v10.56z" stroke="#1B1918" stroke-width="1.279" stroke-miterlimit="10" stroke-linecap="round" stroke-linejoin="round"/><path d="M228.67 320.259h-2.239v-10.56h2.239v10.56z" fill="#fff"/><path d="M228.67 320.259h-2.239v-10.56h2.239v10.56z" stroke="#1B1918" stroke-width="1.279" stroke-miterlimit="10" stroke-linecap="round" stroke-linejoin="round"/><path d="M172.047 320.259h-2.239v-10.56h2.239v10.56z" fill="#fff"/><path d="M172.047 320.259h-2.239v-10.56h2.239v10.56z" stroke="#1B1918" stroke-width="1.279" stroke-miterlimit="10" stroke-linecap="round" stroke-linejoin="round"/><path d="M426.528 32.86h-40.315v-9.728h40.315v9.727z" fill="#1D1316"/><path d="M426.528 32.86h-40.315v-9.728h40.315v9.727z" stroke="#1B1918" stroke-width=".639" stroke-miterlimit="10" stroke-linecap="round" stroke-linejoin="round"/><path d="M426.528 179.105h-40.315v-9.727h40.315v9.727z" fill="#1D1316"/><path d="M426.528 179.105h-40.315v-9.727h40.315v9.727z" stroke="#1B1918" stroke-width=".639" stroke-miterlimit="10" stroke-linecap="round" stroke-linejoin="round"/><path d="M426.528 158.692h-40.315v-9.727h40.315v9.727z" fill="#1D1316"/><path d="M426.528 158.692h-40.315v-9.727h40.315v9.727z" stroke="#1B1918" stroke-width=".639" stroke-miterlimit="10" stroke-linecap="round" stroke-linejoin="round"/><path d="M504.214 185.957l-5.447-1.542a1.829 1.829 0 00-1.663.351l-4.361 3.615c-1.16.965-2.926.177-2.985-1.334l-.219-5.659a1.82 1.82 0 00-.848-1.471l-4.786-3.029c-1.276-.809-1.073-2.732.35-3.254l5.312-1.955a1.834 1.834 0 001.139-1.262l1.401-5.485c.374-1.466 2.268-1.866 3.203-.677l3.501 4.449c.371.472.951.731 1.55.693l5.653-.362c1.506-.097 2.473 1.579 1.631 2.835l-3.151 4.706a1.827 1.827 0 00-.177 1.689l2.09 5.262c.558 1.406-.737 2.841-2.193 2.43" fill="#fff"/><path d="M504.214 185.957l-5.447-1.542a1.829 1.829 0 00-1.663.351l-4.361 3.615c-1.16.965-2.926.177-2.985-1.334l-.219-5.659a1.82 1.82 0 00-.848-1.471l-4.786-3.029c-1.276-.809-1.073-2.732.35-3.254l5.312-1.955a1.834 1.834 0 001.139-1.262l1.401-5.485c.374-1.466 2.268-1.866 3.203-.677l3.501 4.449c.371.472.951.731 1.55.693l5.653-.362c1.506-.097 2.473 1.579 1.631 2.835l-3.151 4.706a1.827 1.827 0 00-.177 1.689l2.09 5.262c.558 1.406-.737 2.841-2.193 2.43v0z" stroke="#1B1918" stroke-width="1.279" stroke-miterlimit="10" stroke-linecap="round" stroke-linejoin="round"/><path d="M119.313 127.148H90.148V97.984h29.165v29.164z" fill="#fff"/><path d="M119.313 127.148H90.148V97.984h29.165v29.164zm-14.582-24.181v19.198m-9.565-9.599h18.89" stroke="#1B1918" stroke-width="1.279" stroke-miterlimit="10" stroke-linecap="round" stroke-linejoin="round"/><path d="M516.56 53.843c0-10.287-8.338-18.624-18.625-18.624s-18.624 8.337-18.624 18.624c0 10.286 8.337 18.624 18.624 18.624 10.287 0 18.625-8.338 18.625-18.624z" fill="#fff"/><path d="M516.56 53.843c0-10.287-8.338-18.624-18.625-18.624s-18.624 8.337-18.624 18.624c0 10.286 8.337 18.624 18.624 18.624 10.287 0 18.625-8.338 18.625-18.624z" stroke="#1B1918" stroke-width="1.279" stroke-miterlimit="10" stroke-linecap="round" stroke-linejoin="round"/><path d="M508.366 51.793h-1.821V63.14h-5.842V57.5a2.545 2.545 0 10-5.087 0v5.64h-5.841V51.792h-2.277l10.258-10.036 10.61 10.036" fill="#fff"/><path d="M508.366 51.793h-1.821V63.14h-5.842V57.5a2.545 2.545 0 10-5.087 0v5.64h-5.841V51.792h-2.277l10.258-10.036 10.61 10.036z" stroke="#1B1918" stroke-width="1.279" stroke-miterlimit="10" stroke-linecap="round" stroke-linejoin="round"/><path d="M302.144 206.357c2.071 0 3.806.514 5.203 1.541 1.415 1.027 2.366 2.425 2.855 4.193h-2.425c-.421-1.078-1.128-1.945-2.122-2.602-.977-.657-2.138-.985-3.486-.985-1.212 0-2.298.286-3.258.859-.96.556-1.717 1.355-2.273 2.399-.539 1.044-.808 2.274-.808 3.688 0 1.448.278 2.703.833 3.764.556 1.044 1.322 1.852 2.299 2.424.993.556 2.13.834 3.41.834 1.094 0 2.096-.236 3.005-.707a5.764 5.764 0 002.223-2.046c.589-.91.943-1.97 1.061-3.183h-6.997v-1.717h8.942v2.121c-.152 1.415-.59 2.695-1.314 3.84a7.866 7.866 0 01-2.93 2.727c-1.229.674-2.627 1.011-4.193 1.011-1.717 0-3.233-.379-4.546-1.137a8.177 8.177 0 01-3.081-3.208c-.725-1.38-1.087-2.955-1.087-4.723 0-1.768.362-3.334 1.087-4.698.74-1.381 1.768-2.458 3.081-3.233 1.313-.775 2.821-1.162 4.521-1.162zm4.673 48.28c0 .489-.034.91-.101 1.263h-11.088c.05 1.583.496 2.77 1.338 3.562.859.791 1.903 1.187 3.132 1.187 1.112 0 2.038-.278 2.779-.834a3.529 3.529 0 001.389-2.273h2.45a5.734 5.734 0 01-1.137 2.576c-.572.758-1.322 1.347-2.248 1.768-.926.421-1.97.632-3.132.632-1.33 0-2.509-.286-3.536-.859a6.18 6.18 0 01-2.425-2.45c-.572-1.078-.858-2.341-.858-3.789s.286-2.711.858-3.788c.59-1.078 1.398-1.903 2.425-2.476 1.027-.572 2.206-.859 3.536-.859 1.347 0 2.518.287 3.511.859 1.011.573 1.777 1.339 2.299 2.299.539.96.808 2.02.808 3.182zm-2.324.152c.051-1.027-.118-1.886-.505-2.577a3.69 3.69 0 00-1.591-1.54 4.843 4.843 0 00-2.198-.505c-1.263 0-2.323.395-3.182 1.187-.859.774-1.322 1.919-1.389 3.435h8.865zm11.948 5.531v2.021h-1.718c-1.414 0-2.475-.337-3.182-1.01-.691-.674-1.036-1.802-1.036-3.385v-7.476h-2.071v-1.996h2.071v-3.46h2.324v3.46h3.587v1.996h-3.587v7.527c0 .892.16 1.507.48 1.843.337.32.909.48 1.717.48h1.415zm-11.114 35.399c0 .842-.202 1.625-.606 2.349-.405.724-1.019 1.313-1.844 1.768-.825.454-1.844.682-3.057.682-1.178 0-2.231-.211-3.157-.632-.909-.437-1.642-1.027-2.197-1.768a5.13 5.13 0 01-.935-2.576h2.45c.051.505.219 1.002.505 1.49.303.472.724.867 1.263 1.187.556.303 1.221.455 1.996.455 1.01 0 1.785-.269 2.323-.808.539-.539.809-1.23.809-2.071 0-.725-.194-1.314-.581-1.769a3.79 3.79 0 00-1.389-1.06c-.556-.27-1.314-.556-2.274-.859-1.128-.371-2.037-.716-2.728-1.036a4.885 4.885 0 01-1.742-1.49c-.472-.657-.708-1.524-.708-2.602 0-.926.219-1.742.657-2.45.455-.707 1.095-1.254 1.92-1.641.842-.388 1.827-.581 2.955-.581 1.751 0 3.14.429 4.168 1.288 1.027.842 1.624 1.919 1.793 3.233h-2.475c-.135-.707-.497-1.33-1.087-1.869-.589-.539-1.389-.808-2.399-.808-.926 0-1.667.244-2.223.732-.555.471-.833 1.145-.833 2.021 0 .69.177 1.254.53 1.692.371.421.825.758 1.364 1.01.539.236 1.28.505 2.223.809 1.145.37 2.063.724 2.753 1.06.707.337 1.305.851 1.793 1.541.489.674.733 1.575.733 2.703zm9.708 2.601v2.021h-1.718c-1.414 0-2.475-.337-3.182-1.01-.691-.674-1.036-1.802-1.036-3.385v-7.476h-2.071v-1.996h2.071v-3.46h2.324v3.46h3.587v1.996h-3.587v7.527c0 .892.16 1.507.48 1.843.337.32.909.48 1.717.48h1.415zm-15.29 25.977c1.347 0 2.483.337 3.41 1.011.943.673 1.599 1.574 1.97 2.702v-3.536h2.298v13.867h-2.298v-3.536c-.371 1.128-1.027 2.029-1.97 2.702-.927.674-2.063 1.011-3.41 1.011-1.23 0-2.324-.286-3.284-.859s-1.717-1.389-2.273-2.45c-.539-1.078-.808-2.341-.808-3.789s.269-2.711.808-3.788c.556-1.078 1.313-1.903 2.273-2.476.96-.572 2.054-.859 3.284-.859zm.656 2.046c-1.414 0-2.551.455-3.409 1.364-.842.893-1.263 2.13-1.263 3.713 0 1.583.421 2.829 1.263 3.738.858.893 1.995 1.339 3.409 1.339.91 0 1.718-.21 2.425-.631a4.394 4.394 0 001.692-1.768c.405-.775.607-1.667.607-2.678 0-1.01-.202-1.903-.607-2.677-.404-.775-.968-1.364-1.692-1.768-.707-.421-1.515-.632-2.425-.632zm17.298 9.977v2.021h-1.718c-1.414 0-2.475-.337-3.182-1.01-.691-.674-1.036-1.802-1.036-3.385v-7.476h-2.071v-1.996h2.071v-3.46h2.324v3.46h3.587v1.996h-3.587v7.527c0 .892.16 1.507.48 1.843.337.32.909.48 1.717.48h1.415zm-10.882 32.317c0 .489-.034.91-.101 1.263h-11.088c.05 1.583.496 2.77 1.338 3.562.859.791 1.903 1.187 3.132 1.187 1.112 0 2.038-.278 2.779-.834a3.529 3.529 0 001.389-2.273h2.45a5.734 5.734 0 01-1.137 2.576c-.572.758-1.322 1.347-2.248 1.768-.926.421-1.97.632-3.132.632-1.33 0-2.509-.286-3.536-.859a6.18 6.18 0 01-2.425-2.45c-.572-1.078-.858-2.341-.858-3.789s.286-2.711.858-3.788c.59-1.078 1.398-1.903 2.425-2.476 1.027-.572 2.206-.859 3.536-.859 1.347 0 2.518.287 3.511.859 1.011.573 1.777 1.339 2.299 2.299.539.96.808 2.02.808 3.182zm-2.324.152c.051-1.027-.118-1.886-.505-2.577a3.69 3.69 0 00-1.591-1.54 4.843 4.843 0 00-2.198-.505c-1.263 0-2.323.395-3.182 1.187-.859.774-1.322 1.919-1.389 3.435h8.865zm-4.748 31.508c1.347 0 2.483.337 3.41 1.011.943.673 1.599 1.574 1.97 2.702v-8.36h2.298v18.691h-2.298v-3.536c-.371 1.128-1.027 2.029-1.97 2.702-.927.674-2.063 1.011-3.41 1.011-1.23 0-2.324-.286-3.284-.859s-1.717-1.389-2.273-2.45c-.539-1.078-.808-2.341-.808-3.789s.269-2.711.808-3.788c.556-1.078 1.313-1.903 2.273-2.476.96-.572 2.054-.859 3.284-.859zm.656 2.046c-1.414 0-2.551.455-3.409 1.364-.842.893-1.263 2.13-1.263 3.713 0 1.583.421 2.829 1.263 3.738.858.893 1.995 1.339 3.409 1.339.91 0 1.718-.21 2.425-.631a4.394 4.394 0 001.692-1.768c.405-.775.607-1.667.607-2.678 0-1.01-.202-1.903-.607-2.677-.404-.775-.968-1.364-1.692-1.768-.707-.421-1.515-.632-2.425-.632z" fill="#fff"/><path d="M320 269l-28-10-3-14.5 21-1 24.5 11.5-14.5 14z" fill="#1D1316" stroke="#000"/></g><defs><clipPath id="clip0_22_44"><path fill="#fff" d="M0 0h573v402H0z"/></clipPath></defs></svg>