<svg width="16" height="16" viewBox="0 0 16 16" fill="none" xmlns="http://www.w3.org/2000/svg">
<path d="M7.59915 0.00257232C6.31515 0.0180723 3.55465 0.229072 2.01065 1.64557C0.862151 2.78357 0.461151 4.46607 0.414151 6.54657C0.375151 8.61957 0.328151 12.5126 4.08065 13.5726V15.1871C4.08065 15.1871 4.05715 15.8331 4.48415 15.9656C5.01015 16.1321 5.30965 15.6351 5.80965 15.1011L6.74215 14.0466C9.30965 14.2601 11.2762 13.7681 11.5027 13.6951C12.0237 13.5286 14.9582 13.1536 15.4377 9.26007C15.9297 5.23907 15.1982 2.70557 13.8777 1.55957H13.8697C13.4712 1.19257 11.8697 0.0255723 8.29165 0.0125723C8.29165 0.0125723 8.02615 -0.00542768 7.59915 0.00207232V0.00257232ZM7.64315 1.13307C8.00765 1.13057 8.22915 1.14607 8.22915 1.14607C11.2577 1.15407 12.7032 2.06557 13.0442 2.37257C14.1562 3.32557 14.7292 5.60957 14.3097 8.96657C13.9111 12.2216 11.5312 12.4276 11.0907 12.5681C10.9032 12.6281 9.17115 13.0551 6.98915 12.9146C6.98915 12.9146 5.36415 14.8756 4.85615 15.3806C4.77565 15.4691 4.68165 15.4951 4.62165 15.4821C4.53565 15.4611 4.50965 15.3546 4.51465 15.2086L4.53015 12.5291C1.34765 11.6491 1.53515 8.32857 1.56915 6.59407C1.60815 4.85957 1.93365 3.44057 2.90265 2.47957C4.20715 1.30007 6.55115 1.14107 7.64215 1.13307H7.64315ZM7.88315 2.86707C7.85696 2.86681 7.83097 2.87173 7.80669 2.88156C7.78241 2.89138 7.76031 2.90592 7.74167 2.92432C7.72303 2.94273 7.70822 2.96464 7.69809 2.9888C7.68796 3.01296 7.68272 3.03888 7.68265 3.06507C7.68265 3.17707 7.77365 3.26557 7.88315 3.26557C8.3789 3.25614 8.87162 3.34496 9.33288 3.52689C9.79414 3.70881 10.2148 3.98026 10.5707 4.32557C11.2972 5.03107 11.6512 5.97907 11.6647 7.21857C11.6647 7.32807 11.7531 7.41907 11.8652 7.41907V7.41107C11.9179 7.41121 11.9686 7.39047 12.0062 7.35338C12.0438 7.31629 12.0651 7.26585 12.0657 7.21307C12.0899 6.62965 11.9953 6.04738 11.7876 5.50166C11.5798 4.95593 11.2633 4.45815 10.8572 4.03857C10.0657 3.26507 9.06265 2.86657 7.88315 2.86657V2.86707ZM5.24765 3.32557C5.10612 3.30489 4.96178 3.3333 4.83865 3.40607H4.82815C4.54228 3.57364 4.28476 3.78543 4.06515 4.03357C3.88265 4.24457 3.78365 4.45807 3.75765 4.66357C3.74215 4.78607 3.75265 4.90857 3.78915 5.02557L3.80215 5.03357C4.00765 5.63757 4.27615 6.21857 4.60415 6.76557C5.02666 7.53405 5.54663 8.24476 6.15115 8.88007L6.16915 8.90607L6.19765 8.92707L6.21565 8.94807L6.23665 8.96607C6.87427 9.57237 7.58669 10.0948 8.35665 10.5206C9.23665 10.9996 9.77065 11.2261 10.0912 11.3201V11.3251C10.1852 11.3536 10.2706 11.3666 10.3567 11.3666C10.6298 11.3466 10.8884 11.2357 11.0912 11.0516C11.3382 10.8319 11.5476 10.5733 11.7112 10.2861V10.2811C11.8647 9.99207 11.8127 9.71857 11.5912 9.53357C11.1476 9.14582 10.6679 8.80142 10.1587 8.50507C9.81765 8.32007 9.47115 8.43207 9.33065 8.61957L9.03115 8.99707C8.87765 9.18457 8.59865 9.15857 8.59865 9.15857L8.59065 9.16357C6.51015 8.63207 5.95515 6.52557 5.95515 6.52557C5.95515 6.52557 5.92915 6.23907 6.12165 6.09307L6.49665 5.79107C6.67615 5.64507 6.80115 5.29907 6.60865 4.95757C6.31435 4.44765 5.9707 3.96785 5.58265 3.52507C5.49782 3.42069 5.3788 3.34967 5.24665 3.32457L5.24765 3.32557ZM8.22915 3.91957C7.96365 3.91957 7.96365 4.32057 8.23165 4.32057C8.56179 4.32593 8.88764 4.39629 9.19057 4.52764C9.49351 4.65899 9.76759 4.84875 9.99715 5.08607C10.2066 5.31708 10.3675 5.58776 10.4704 5.88209C10.5733 6.17642 10.616 6.48841 10.5962 6.79957C10.5971 6.85223 10.6186 6.90244 10.656 6.93945C10.6935 6.97646 10.744 6.99732 10.7967 6.99757L10.8047 7.00807C10.8577 7.00768 10.9085 6.98643 10.946 6.94891C10.9835 6.9114 11.0048 6.86063 11.0052 6.80757C11.0232 6.01307 10.7762 5.34657 10.2917 4.81257C9.80465 4.27857 9.12515 3.97907 8.25765 3.91957H8.22915ZM8.55765 4.99757C8.28415 4.98957 8.27365 5.39857 8.54465 5.40657C9.20365 5.44057 9.52365 5.77357 9.56565 6.45857C9.56656 6.51057 9.5878 6.56014 9.6248 6.59668C9.66181 6.63322 9.71165 6.65382 9.76365 6.65407H9.77165C9.79839 6.65293 9.82463 6.64647 9.84884 6.63507C9.87305 6.62367 9.89475 6.60756 9.91267 6.58769C9.93059 6.56781 9.94437 6.54457 9.95321 6.51931C9.96205 6.49405 9.96577 6.46728 9.96415 6.44057C9.91715 5.54757 9.43015 5.04457 8.56565 4.99807H8.55765V4.99757Z" fill="#FF0000"/>
</svg>
